<svg width="57" height="35" viewBox="0 0 57 35" fill="none" xmlns="http://www.w3.org/2000/svg">
<path d="M2.72951 4.32501L25.8443 15.6795C26.621 16.06 27.6257 16.2403 28.6366 16.2403C29.6475 16.2403 30.6522 16.06 31.4289 15.6795L54.5437 4.32501C56.0508 3.58382 57.4747 0.700806 54.7101 0.700806H2.56616C-0.198369 0.700806 1.2255 3.58382 2.72951 4.32501ZM55.2433 10.5335L31.4289 21.8824C30.381 22.384 29.6475 22.4432 28.6366 22.4432C27.6257 22.4432 26.8922 22.384 25.8443 21.8824C24.7965 21.3807 3.86059 11.3451 2.1501 10.5307C0.948126 9.95576 0.960454 10.6293 0.960454 11.1479V31.701C0.960454 32.8846 2.70485 34.5192 4.04243 34.5192H53.3541C54.6916 34.5192 56.436 32.8846 56.436 31.701V11.1507C56.436 10.6321 56.4484 9.95858 55.2433 10.5335Z" fill="#B9CC56"/>
</svg>
