<svg width="37" height="59" viewBox="0 0 37 59" fill="none" xmlns="http://www.w3.org/2000/svg">
<path d="M18.7876 0.408691C16.4465 0.408691 14.1283 0.851925 11.9654 1.71311C9.80255 2.57429 7.8373 3.83656 6.1819 5.42782C4.5265 7.01908 3.21335 8.90816 2.31746 10.9872C1.42156 13.0663 0.960448 15.2947 0.960449 17.5451C0.960449 27.0092 18.7876 58.2439 18.7876 58.2439C18.7876 58.2439 36.6147 27.0092 36.6147 17.5451C36.6147 15.2947 36.1536 13.0663 35.2577 10.9872C34.3618 8.90816 33.0487 7.01908 31.3933 5.42782C29.7379 3.83656 27.7726 2.57429 25.6097 1.71311C23.4469 0.851925 21.1287 0.408691 18.7876 0.408691ZM18.7876 26.5416C16.9365 26.5416 15.127 26.014 13.5879 25.0254C12.0488 24.0369 10.8492 22.6318 10.1408 20.9879C9.43241 19.344 9.24707 17.5351 9.6082 15.7899C9.96932 14.0448 10.8607 12.4417 12.1696 11.1835C13.4785 9.92533 15.1462 9.06848 16.9617 8.72135C18.7772 8.37421 20.659 8.55238 22.3692 9.23331C24.0794 9.91424 25.5411 11.0673 26.5695 12.5468C27.5979 14.0263 28.1468 15.7657 28.1468 17.5451C28.1468 19.9311 27.1608 22.2194 25.4056 23.9066C23.6504 25.5938 21.2698 26.5416 18.7876 26.5416Z" fill="#A2B742"/>
</svg>
