<svg width="48" height="47" viewBox="0 0 48 47" fill="none" xmlns="http://www.w3.org/2000/svg">
<path d="M36.5461 46.2007C36.0865 46.1994 35.6283 46.1493 35.1794 46.0511C26.6328 44.2915 18.7592 40.166 12.4646 34.1494C6.3044 28.1195 2.03195 20.4421 0.16421 12.0462C-0.0560199 10.9998 -0.00196663 9.9146 0.32117 8.89502C0.644306 7.87544 1.22565 6.95578 2.00927 6.22452L7.47613 0.987766C7.75536 0.724959 8.08713 0.523707 8.4498 0.397144C8.81246 0.270582 9.19787 0.221554 9.58087 0.25326C9.97798 0.294491 10.3612 0.421806 10.7036 0.626251C11.046 0.830696 11.3392 1.10731 11.5626 1.43663L18.3962 11.4885C18.6524 11.8785 18.7761 12.3401 18.7491 12.8053C18.722 13.2706 18.5456 13.7149 18.2458 14.0729L14.8154 18.1534C16.1816 21.1628 18.1165 23.8827 20.5146 26.165C22.8972 28.5301 25.7133 30.4186 28.8105 31.7282L33.061 28.3685C33.418 28.0877 33.8524 27.9217 34.3065 27.8926C34.7606 27.8634 35.2128 27.9725 35.6031 28.2053L45.9218 34.8431C46.2759 35.0535 46.5775 35.3409 46.8042 35.6838C47.0308 36.0268 47.1766 36.4163 47.2305 36.8232C47.2844 37.2302 47.245 37.644 47.1155 38.0336C46.9859 38.4233 46.7693 38.7787 46.4821 39.0733L41.1519 44.3236C40.5465 44.9233 39.8278 45.3978 39.0374 45.7199C38.2469 46.0421 37.4003 46.2055 36.5461 46.2007ZM9.36219 2.94645L3.89534 8.18321C3.45451 8.59201 3.12818 9.10798 2.94846 9.68035C2.76873 10.2527 2.7418 10.8618 2.8703 11.4477C4.60701 19.3261 8.59918 26.5354 14.3644 32.2043C20.288 37.8648 27.6975 41.7452 35.7398 43.3987C36.3485 43.5254 36.9793 43.4997 37.5756 43.324C38.172 43.1484 38.7152 42.8282 39.1565 42.3922L44.4867 37.1418L34.5234 30.7353L29.9586 34.3534C29.7838 34.491 29.5779 34.5841 29.3587 34.6244C29.1396 34.6647 28.9138 34.651 28.7012 34.5846C24.9109 33.1948 21.476 30.9885 18.6422 28.1237C15.7111 25.3995 13.4358 22.0518 11.9863 18.3303C11.925 18.105 11.9229 17.8678 11.9804 17.6415C12.0378 17.4152 12.1528 17.2074 12.3143 17.0381L16.0044 12.6447L9.36219 2.94645Z" fill="#B9CC56"/>
</svg>
