<svg width="48" height="46" viewBox="0 0 48 46" fill="none" xmlns="http://www.w3.org/2000/svg">
<path fill-rule="evenodd" clip-rule="evenodd" d="M34.4823 27.7598C33.9 27.4773 31.0447 26.1161 30.5131 25.9265C29.9815 25.7388 29.5946 25.646 29.2057 26.2109C28.8187 26.7721 27.7067 28.0423 27.3686 28.4177C27.0285 28.7949 26.6904 28.8404 26.11 28.5598C25.5296 28.2755 23.6573 27.6821 21.4392 25.7635C19.7135 24.2696 18.5468 22.4249 18.2087 21.86C17.8706 21.2969 18.1715 20.9917 18.4627 20.7111C18.7246 20.459 19.0432 20.0533 19.3344 19.7253C19.6256 19.3954 19.7213 19.1603 19.9148 18.783C20.1102 18.4077 20.0125 18.0797 19.8659 17.7972C19.7213 17.5147 18.5605 14.7411 18.0758 13.6131C17.6048 12.5154 17.126 12.6652 16.7703 12.6462C16.4302 12.6311 16.0433 12.6273 15.6563 12.6273C15.2694 12.6273 14.6401 12.7676 14.1085 13.3325C13.575 13.8956 12.076 15.2587 12.076 18.0323C12.076 20.804 14.1554 23.4828 14.4466 23.8601C14.7378 24.2355 18.5409 29.9267 24.3668 32.3667C25.7543 32.9468 26.8351 33.2937 27.6774 33.5516C29.0689 33.9819 30.3353 33.9212 31.3359 33.7753C32.4498 33.6141 34.7716 32.4122 35.2563 31.0965C35.739 29.7808 35.739 28.6527 35.5944 28.4177C35.4497 28.1826 35.0628 28.0423 34.4804 27.7598H34.4823ZM23.886 41.7946H23.8782C20.4179 41.7952 17.0212 40.8929 14.044 39.1822L13.3404 38.7765L6.02736 40.6382L7.97973 33.7222L7.52046 33.0131C5.58595 30.026 4.56219 26.5688 4.56747 23.0411C4.57138 12.7088 13.2369 4.3027 23.8938 4.3027C29.0532 4.3027 33.9039 6.2554 37.5506 9.79681C39.3494 11.5345 40.775 13.6009 41.7452 15.8765C42.7153 18.1522 43.2106 20.5918 43.2026 23.0544C43.1986 33.3866 34.5332 41.7946 23.886 41.7946ZM40.3258 7.10663C38.1725 5.00401 35.6104 3.33684 32.7881 2.20174C29.9658 1.06664 26.9393 0.486169 23.884 0.493974C11.0754 0.493974 0.647095 10.6082 0.643187 23.0392C0.641232 27.0128 1.71025 30.8917 3.7447 34.3099L0.447754 45.9939L12.7678 42.8582C16.1759 44.6595 19.9951 45.6033 23.8762 45.6034H23.886C36.6946 45.6034 47.1229 35.4891 47.1268 23.0562C47.1363 20.0936 46.5401 17.1585 45.3727 14.4208C44.2053 11.6831 42.4899 9.19711 40.3258 7.10663Z" fill="#B9CC56"/>
</svg>
