<svg width="21" height="37" viewBox="0 0 21 37" fill="none" xmlns="http://www.w3.org/2000/svg">
<path d="M17.4099 15.9099C16.0292 15.9099 14.9099 17.0292 14.9099 18.4099C14.9099 19.7906 16.0292 20.9099 17.4099 20.9099V15.9099ZM20.1777 20.1777C21.154 19.2014 21.154 17.6184 20.1777 16.6421L4.26776 0.732233C3.29145 -0.244078 1.70854 -0.244078 0.732233 0.732233C-0.244078 1.70854 -0.244078 3.29145 0.732233 4.26776L14.8744 18.4099L0.732233 32.552C-0.244078 33.5283 -0.244078 35.1113 0.732233 36.0876C1.70854 37.0639 3.29145 37.0639 4.26776 36.0876L20.1777 20.1777ZM17.4099 20.9099H18.4099V15.9099H17.4099V20.9099Z" fill="#9B800A"/>
</svg>
