<svg width="801" height="691" viewBox="0 0 801 691" fill="none" xmlns="http://www.w3.org/2000/svg">
<path d="M225.532 459.195C275.652 459.195 316.283 415.677 316.283 361.995C316.283 308.312 275.652 264.794 225.532 264.794C175.411 264.794 134.78 308.312 134.78 361.995C134.78 415.677 175.411 459.195 225.532 459.195Z" fill="#E6E6E6"/>
<path d="M201.012 503.933L223.336 518.749V418.598L198.314 401.99C196.245 400.617 194.734 398.462 194.078 395.952C196.469 395.463 198.944 395.953 201.012 397.326L223.336 412.142V373.306C223.336 365.794 224.196 358.309 225.898 351.02C227.599 358.309 228.459 365.794 228.459 373.306V436.694L261.393 414.836C264.022 413.09 267.065 412.191 270.158 412.246C268.827 415.237 266.721 417.755 264.091 419.5L228.459 443.149V680H223.336V525.205L198.314 508.597C196.245 507.224 194.734 505.069 194.078 502.559C196.469 502.07 198.944 502.56 201.012 503.933Z" fill="#CCCCCC"/>
<path d="M91.1167 467.448C141.237 467.448 181.868 423.93 181.868 370.247C181.868 316.565 141.237 273.047 91.1167 273.047C40.9961 273.047 0.365265 316.565 0.365265 370.247C0.365265 423.93 40.9961 467.448 91.1167 467.448Z" fill="#E6E6E6"/>
<path d="M115.636 512.186L93.3123 527.002V426.851L118.334 410.243C120.403 408.87 121.915 406.715 122.57 404.205C120.179 403.716 117.705 404.206 115.636 405.579L93.3122 420.395V381.559C93.3122 374.046 92.4519 366.562 90.7507 359.273C89.0494 366.562 88.1891 374.046 88.1891 381.559V444.947L55.2557 423.089C52.626 421.343 49.5833 420.444 46.4901 420.499C47.8215 423.49 49.9275 426.008 52.5572 427.753L88.1893 451.402V680.523H93.3123V533.458L118.334 516.85C120.403 515.477 121.915 513.322 122.57 510.812C120.179 510.323 117.705 510.813 115.636 512.186Z" fill="#CCCCCC"/>
<path d="M157.04 334.709C243.335 334.709 313.291 259.782 313.291 167.354C313.291 74.9272 243.335 0 157.04 0C70.7448 0 0.788879 74.9272 0.788879 167.354C0.788879 259.782 70.7448 334.709 157.04 334.709Z" fill="#E6E6E6"/>
<path d="M199.256 411.737L160.82 437.247V264.811L203.902 236.217C207.464 233.853 210.066 230.143 211.194 225.82L211.194 225.82H211.194C207.078 224.978 202.817 225.823 199.256 228.187L160.82 253.696V186.831C160.82 173.896 159.339 161.009 156.41 148.46C153.481 161.009 152 173.896 152 186.831V295.968L95.2962 258.334C90.7685 255.329 85.5299 253.781 80.204 253.874C82.4965 259.024 86.1224 263.359 90.6502 266.364L151.999 307.082V680.89H160.82V448.361L203.902 419.767C207.464 417.403 210.066 413.693 211.194 409.37L211.194 409.37H211.194C207.078 408.528 202.817 409.373 199.256 411.737Z" fill="#CCCCCC"/>
<path d="M800.268 680H62.6829V682H800.268V680Z" fill="#3F3D56"/>
<path d="M610.311 301.934L573.704 324.571L594.839 363.78L631.447 341.143L610.311 301.934Z" fill="#FF6584"/>
<path d="M610.776 371.952L588.707 331.01L626.932 307.373L649.001 348.315L610.776 371.952ZM591.258 331.743L611.46 369.219L646.45 347.583L626.248 310.106L591.258 331.743Z" fill="#2F2E41"/>
<path d="M576.53 481.969C586.327 481.969 594.27 473.462 594.27 462.969C594.27 452.475 586.327 443.969 576.53 443.969C566.733 443.969 558.791 452.475 558.791 462.969C558.791 473.462 566.733 481.969 576.53 481.969Z" fill="#D0CDE1"/>
<path d="M589.601 482.969C585.908 482.969 582.298 481.796 579.227 479.598C576.156 477.4 573.763 474.277 572.35 470.622C570.936 466.968 570.566 462.946 571.287 459.067C572.007 455.187 573.786 451.623 576.397 448.826C579.009 446.029 582.336 444.125 585.958 443.353C589.58 442.581 593.335 442.977 596.747 444.491C600.159 446.005 603.075 448.568 605.127 451.857C607.179 455.146 608.274 459.013 608.274 462.969C608.274 468.273 606.307 473.36 602.805 477.111C599.303 480.861 594.554 482.969 589.601 482.969ZM589.601 444.969C586.277 444.969 583.028 446.024 580.264 448.002C577.501 449.98 575.347 452.791 574.075 456.08C572.803 459.369 572.47 462.988 573.118 466.48C573.767 469.972 575.367 473.179 577.718 475.696C580.068 478.214 583.063 479.928 586.323 480.623C589.583 481.317 592.962 480.961 596.032 479.598C599.103 478.236 601.728 475.929 603.575 472.969C605.421 470.009 606.407 466.529 606.407 462.969C606.407 458.195 604.636 453.616 601.485 450.241C598.333 446.865 594.058 444.969 589.601 444.969Z" fill="#2F2E41"/>
<path d="M688.439 684.549H516.647C514.543 684.546 512.526 683.65 511.038 682.056C509.551 680.463 508.714 678.302 508.711 676.049V505.049C508.714 502.795 509.551 500.635 511.038 499.041C512.526 497.448 514.543 496.551 516.647 496.549H688.439C690.543 496.551 692.561 497.448 694.048 499.041C695.536 500.635 696.373 502.795 696.375 505.049V676.049C696.373 678.302 695.536 680.463 694.048 682.056C692.561 683.65 690.543 684.546 688.439 684.549Z" fill="#A2B742"/>
<path d="M614.679 690.553H590.404C588.3 690.55 586.283 689.654 584.796 688.06C583.308 686.467 582.471 684.306 582.468 682.053V499.969C582.471 497.715 583.308 495.555 584.796 493.961C586.283 492.368 588.3 491.471 590.404 491.469H614.679C616.783 491.471 618.801 492.368 620.288 493.961C621.776 495.555 622.613 497.715 622.616 499.969V682.053C622.613 684.306 621.776 686.467 620.288 688.06C618.801 689.654 616.783 690.55 614.679 690.553Z" fill="#3F3D56"/>
<path d="M734.082 479.621C733.079 497.262 710.831 510.163 710.831 510.163C710.831 510.163 690.21 494.464 691.214 476.823C692.218 459.183 714.465 446.282 714.465 446.282C714.465 446.282 735.086 461.981 734.082 479.621Z" fill="#3F3D56"/>
<path d="M735.09 534.661C718.617 533.641 706.502 509.852 706.502 509.852C706.502 509.852 721.096 487.717 737.569 488.737C754.042 489.757 766.156 513.546 766.156 513.546C766.156 513.546 751.563 535.681 735.09 534.661Z" fill="#3F3D56"/>
<path opacity="0.1" d="M695.908 517.469V582.749L635.286 497.049H681.465L695.908 517.469Z" fill="black"/>
<path d="M747.373 629.214C746.147 629.217 744.936 628.914 743.837 628.331C742.737 627.747 741.78 626.898 741.039 625.851L614.74 447.31C614.11 446.42 613.651 445.406 613.387 444.326C613.123 443.246 613.061 442.121 613.203 441.016C613.346 439.91 613.69 438.845 614.216 437.882C614.743 436.918 615.442 436.075 616.272 435.401L634.877 420.304C635.708 419.63 636.654 419.137 637.662 418.855C638.671 418.573 639.721 418.506 640.753 418.658C641.786 418.811 642.78 419.18 643.679 419.744C644.579 420.308 645.365 421.056 645.995 421.946L772.294 600.486C772.923 601.376 773.383 602.39 773.647 603.47C773.91 604.55 773.973 605.675 773.83 606.78C773.688 607.886 773.344 608.951 772.817 609.914C772.29 610.878 771.592 611.72 770.761 612.395L752.157 627.492C750.781 628.611 749.101 629.216 747.373 629.214Z" fill="#A2B742"/>
<path d="M696.819 490.48L664.819 516.448L689.064 550.722L721.064 524.754L696.819 490.48Z" fill="#3F3D56"/>
<path d="M532.208 359.874L521.268 403.605L562.098 415.323L573.038 371.591L532.208 359.874Z" fill="#D0CDE1"/>
<path d="M544.777 421.861L502.143 409.626L513.567 363.962L556.2 376.197L544.777 421.861ZM504.43 408.212L543.457 419.412L553.914 377.611L514.887 366.411L504.43 408.212Z" fill="#2F2E41"/>
<path d="M365.189 527.999C366.311 526.848 367.184 525.448 367.745 523.896C368.307 522.345 368.545 520.68 368.441 519.02C368.337 517.36 367.895 515.744 367.145 514.287C366.395 512.829 365.356 511.566 364.101 510.585L346.956 362.555L324.804 369.609L348.719 513.668C347.32 516.035 346.781 518.87 347.204 521.635C347.626 524.4 348.981 526.902 351.011 528.669C353.041 530.436 355.606 531.343 358.219 531.22C360.832 531.096 363.312 529.95 365.189 527.999Z" fill="#FFB8B8"/>
<path d="M385.723 669.489H398.679L404.846 615.964H385.723V669.489Z" fill="#FFB8B8"/>
<path d="M423.667 682.375H382.947V665.524H409.373C413.164 665.524 416.8 667.137 419.48 670.008C422.161 672.879 423.667 676.773 423.667 680.834V682.375Z" fill="#2F2E41"/>
<path d="M296.127 647.875L308.271 652.713L331.472 604.848L313.55 597.707L296.127 647.875Z" fill="#FFB8B8"/>
<path d="M327.496 674.12L289.331 658.915L294.816 643.122L319.584 652.99C323.137 654.405 326.019 657.275 327.597 660.966C329.175 664.658 329.319 668.87 327.997 672.676L327.496 674.12L327.496 674.12Z" fill="#2F2E41"/>
<path d="M362.481 324.127C376.01 324.127 386.978 312.379 386.978 297.888C386.978 283.397 376.01 271.649 362.481 271.649C348.951 271.649 337.983 283.397 337.983 297.888C337.983 312.379 348.951 324.127 362.481 324.127Z" fill="#FFB8B8"/>
<path d="M324.163 365.23C323.396 341.062 347.111 324.295 367.064 335.611C369.606 337.053 395.856 360.939 396.845 375.772C397.834 390.606 399.813 414.975 399.813 414.975L427.511 636.418L368.157 633.239L375.325 568.641L336.745 634.332L290.007 618.406L347.383 441.463C347.383 441.463 325.325 401.856 324.163 365.23Z" fill="#2F2E41"/>
<path d="M324.63 373.644L328.441 426.712C328.481 427.266 328.715 427.784 329.095 428.162C329.476 428.539 329.976 428.749 330.495 428.749H347.265C347.604 428.749 347.937 428.659 348.236 428.488C348.535 428.317 348.79 428.07 348.978 427.768C349.166 427.466 349.282 427.119 349.315 426.758C349.348 426.396 349.297 426.032 349.167 425.697L328.586 372.628C328.398 372.144 328.055 371.747 327.618 371.508C327.181 371.27 326.68 371.207 326.204 371.329C325.727 371.451 325.307 371.752 325.018 372.176C324.73 372.6 324.592 373.12 324.63 373.644Z" fill="#2F2E41"/>
<path d="M410.751 518.804C411.739 517.52 412.453 516.02 412.841 514.409C413.23 512.798 413.284 511.115 412.999 509.479C412.715 507.843 412.099 506.294 411.195 504.94C410.291 503.587 409.121 502.462 407.768 501.646L374.565 356.782L353.336 366.565L392.828 506.636C391.698 509.162 391.472 512.045 392.193 514.738C392.915 517.431 394.534 519.746 396.743 521.246C398.952 522.746 401.599 523.326 404.18 522.876C406.762 522.426 409.1 520.977 410.751 518.804Z" fill="#FFB8B8"/>
<path d="M356.286 343.986C356.286 343.986 349.362 358.82 356.286 385.308C363.211 411.797 368.157 434.047 368.157 434.047C368.157 434.047 383.985 423.452 390.91 426.63C397.834 429.809 379.956 356.019 379.956 356.019C379.956 356.019 369.146 331.272 356.286 343.986Z" fill="#2F2E41"/>
<path d="M368.229 301.982C368.56 296.538 374.973 296.351 380.067 296.3C385.16 296.248 391.25 296.443 394.133 291.944C396.037 288.971 395.673 284.844 394.1 281.656C392.526 278.469 389.938 276.017 387.391 273.659C380.817 267.57 374.042 261.53 366.149 257.632C358.256 253.735 349.007 252.16 340.821 255.289C330.765 259.132 317.172 278.915 315.998 290.281C314.824 301.647 319.065 313.233 326.214 321.726C333.363 330.22 349.725 326.793 360.022 329.814C353.762 320.325 357.889 303.082 367.917 298.65L368.229 301.982Z" fill="#2F2E41"/>
</svg>
