<svg width="207" height="208" viewBox="0 0 207 208" fill="none" xmlns="http://www.w3.org/2000/svg">
<circle cx="104.743" cy="104" r="99" fill="#B9CC56" fill-opacity="0.7"/>
<g clip-path="url(#clip0_161:114)">
<path fill-rule="evenodd" clip-rule="evenodd" d="M108.374 109.36C102.005 101.054 97.6953 90.874 98.4156 79.4676C100.491 46.6026 141.661 53.8325 149.67 70.4199C157.679 87.0074 156.727 129.083 146.377 132.047C142.249 133.23 133.456 130.334 124.506 124.339L130.124 168.5H96.9551L108.374 109.36Z" fill="#B28B67"/>
<path fill-rule="evenodd" clip-rule="evenodd" d="M119.853 107.049C115.74 115.822 110.052 122.429 104.369 122.429C93.5741 122.429 85.8989 106.392 85.8989 89.149C85.8989 88.5432 85.9097 87.9414 85.931 87.3441C74.5122 96.0513 65.712 113.214 50.6031 113.214C30.0475 113.214 21.8841 67.1429 50.6031 67.1429C70.1342 67.1429 79.7414 70.3072 88.0209 74.9864C89.6539 69.8708 92.144 65.5698 95.1888 62.5663C95.9213 61.65 97.0443 60.7733 98.4931 59.9606C99.3789 59.4221 100.295 58.9835 101.237 58.6535C106.231 56.6144 113.463 55.1762 121.542 54.8628C123.051 54.8042 124.532 54.7871 125.978 54.8087C126.001 46.3494 132.18 39.5 139.798 39.5C147.43 39.5 153.618 46.3756 153.618 54.8571C153.618 63.0595 147.831 69.76 140.546 70.1921C136.379 71.6209 131.025 72.67 125.088 73.1124C125.664 75.5213 125.978 78.258 125.978 81.3506C125.978 84.0813 125.706 86.9774 125.207 89.918C123.919 88.2171 122.197 87.1071 120.449 87.1071C115.56 87.1071 112.157 91.5763 112.157 96.3214C112.157 102.344 115.286 106.7 119.853 107.049Z" fill="#191847"/>
</g>
<defs>
<clipPath id="clip0_161:114">
<rect width="123" height="129" fill="white" transform="translate(32 39.5)"/>
</clipPath>
</defs>
</svg>
