<svg width="213" height="212" viewBox="0 0 213 212" fill="none" xmlns="http://www.w3.org/2000/svg">
<circle cx="107" cy="106" r="99" fill="#B9CC56" fill-opacity="0.7"/>
<g clip-path="url(#clip0_161:116)">
<path fill-rule="evenodd" clip-rule="evenodd" d="M86.7258 104.371C78.7667 95.6446 73.3798 84.9507 74.2799 72.9677C76.8735 38.4417 128.329 46.037 138.339 63.4628C148.348 80.8886 147.158 125.091 134.222 128.205C129.064 129.447 118.074 126.405 106.888 120.107L113.909 166.5H72.4546L86.7258 104.371Z" fill="#B28B67"/>
<path fill-rule="evenodd" clip-rule="evenodd" d="M99.6242 85.6188C98.2686 84.7486 96.6489 84.22 94.9091 84.22C90.1394 84.22 86.2727 88.1927 86.2727 92.2867C86.2727 96.5457 88.426 99.8387 91.5009 101.236C89.8586 104.235 88.2072 106.411 86.2727 106.807C78.8077 106.101 69 88.7704 69 74.54C69 58.9641 82.2689 45.5 107 45.5C129.228 45.5 137.657 54.0607 138.091 61.6333C128.566 64.0785 111.921 65.0201 88 64.86V66.4733L108.727 68.0867L112.182 77.7667C106.686 77.3834 102.758 80.9046 99.6242 85.6188Z" fill="#191847"/>
</g>
<defs>
<clipPath id="clip0_161:116">
<rect width="76" height="121" fill="white" transform="translate(69 45.5)"/>
</clipPath>
</defs>
</svg>
