<svg width="208" height="206" viewBox="0 0 208 206" fill="none" xmlns="http://www.w3.org/2000/svg">
<circle cx="103" cy="102" r="99" fill="#B9CC56" fill-opacity="0.7"/>
<path fill-rule="evenodd" clip-rule="evenodd" d="M78.6844 100.434C70.2606 92.1267 64.5593 81.9464 65.512 70.539C68.257 37.6711 122.716 44.9016 133.31 61.4905C143.903 78.0794 142.645 120.158 128.954 123.123C123.494 124.306 111.862 121.409 100.024 115.415L107.455 159.579H63.5801L78.6844 100.434Z" fill="#B28B67"/>
<path fill-rule="evenodd" clip-rule="evenodd" d="M102.218 74.1688C103.897 93.8234 108.34 103.651 115.545 103.651C126.355 103.651 135.525 97.8856 140.268 97.8856C143.726 97.8856 142.954 101.521 140.662 104.216C138.771 106.439 129.563 108.582 129.563 112.029C129.563 115.476 136.838 112.81 136.838 114.854C136.838 118.236 138.117 124.594 131.131 124.594C124.06 124.594 103.789 122.429 100.315 113.613C98.0727 107.924 96.6231 96.134 95.9658 78.2439C95.5369 78.2011 95.1004 78.1791 94.6578 78.1791C88.6 78.1791 83.6892 82.3048 83.6892 87.3942C83.6892 89.9778 84.9548 92.3131 86.9935 93.9864C84.4556 96.996 81.6112 100.14 78.3519 103.384C66.1073 97.2124 57.0211 79.1451 68.9922 61.7889C72.301 53.2864 79.7918 48.7449 88.6385 46.6361C95.8049 44.1176 103.244 43.8337 109.524 45.3435C121.834 46.2305 132.827 49.3842 135.942 51.2571C135.942 61.0484 133.684 63.9535 114.395 63.6975C109.656 65.8003 106.013 69.4214 102.218 74.1688Z" fill="#191847"/>
</svg>
