<svg width="210" height="209" viewBox="0 0 210 209" fill="none" xmlns="http://www.w3.org/2000/svg">
<circle cx="105" cy="105" r="99" fill="#B9CC56" fill-opacity="0.7"/>
<g clip-path="url(#clip0_161:115)">
<path fill-rule="evenodd" clip-rule="evenodd" d="M98.7884 114.086C92.0344 106.514 87.4631 97.2341 88.227 86.8357C90.4279 56.875 134.093 63.466 142.587 78.5876C151.08 93.7091 150.071 132.066 139.094 134.769C134.716 135.847 125.39 133.206 115.898 127.742L121.856 168H86.678L98.7884 114.086Z" fill="#B28B67"/>
<path fill-rule="evenodd" clip-rule="evenodd" d="M158.171 57.6246C157.443 55.1789 155.483 53.0849 152.843 52.4636C152.202 52.3129 151.541 52.2521 150.882 52.2774C150.646 52.2864 150.58 52.3515 150.469 52.1937C150.387 52.0766 150.385 51.7907 150.352 51.6532C150.247 51.2255 150.116 50.8031 149.954 50.3916C149.401 48.9883 148.473 47.7464 147.353 46.7002C145.26 44.743 142.431 43.3922 139.492 43.1478C137.883 43.0141 136.286 43.2638 134.766 43.7635C133.978 44.0223 133.215 44.3444 132.471 44.7006C132.248 44.8078 131.521 45.3329 131.297 45.2989C131.048 45.2613 130.55 44.6724 130.348 44.5245C127.854 42.697 124.775 41.9785 121.668 42.0005C118.162 42.0252 114.786 42.1926 111.862 44.234C111.243 44.6662 110.654 45.1394 110.092 45.6377C109.797 45.9 109.51 46.1721 109.237 46.4556C109.073 46.6266 108.912 46.8014 108.758 46.981C108.496 47.2858 108.538 47.3859 108.171 47.1733C106.764 46.3566 105.133 45.9747 103.49 46.1675C102.515 46.2821 101.566 46.5618 100.665 46.9299C100.358 47.0552 99.6481 47.5551 99.3211 47.56C98.9967 47.5647 98.2966 47.1014 97.9625 46.9836C96.1578 46.3473 94.2126 46.1904 92.3157 46.4844C90.359 46.7878 88.437 47.5335 86.7791 48.5639C85.9818 49.0595 85.2861 49.6087 84.7273 50.3457C84.486 50.6639 84.2679 51.0005 83.9945 51.2955C83.8344 51.4683 83.5173 51.6455 83.4314 51.8642C83.4828 51.7332 81.2915 50.9264 81.0848 50.8748C79.9831 50.6 78.8614 50.6557 77.7827 50.9948C75.7542 51.6324 74.0097 53.0622 72.5759 54.5282C71.8396 55.2812 71.1952 56.1136 70.6482 57.0003C70.386 57.4251 70.1463 57.862 69.9269 58.3082C69.8207 58.5243 69.7502 58.7947 69.6102 58.9895C69.4297 59.2404 69.3084 59.2452 68.9815 59.3546C67.3214 59.9101 65.8081 60.8504 64.6556 62.1209C63.4899 63.4063 62.7335 64.9892 62.4164 66.6562C62.3977 66.7544 62.3866 67.1613 62.3264 67.2145C62.2439 67.2877 61.9101 67.2553 61.7838 67.2695C61.3464 67.3185 60.9122 67.3914 60.4838 67.4883C59.6939 67.6668 58.9252 67.9296 58.198 68.2733C55.3631 69.6129 53.3359 72.1245 52.3438 74.9506C51.3027 77.9164 51.3212 81.3142 52.5654 84.2247C52.7664 84.6948 53.0056 85.1511 53.2865 85.5828C53.4589 85.8477 53.5146 85.8484 53.4026 86.1264C53.2778 86.4357 53.0497 86.7363 52.9015 87.0385C52.4179 88.0247 52.0798 89.0707 51.8662 90.1391C51.5159 91.8916 51.3422 93.7332 51.6879 95.499C51.8484 96.319 52.128 97.1205 52.5546 97.8508C52.7721 98.2231 53.0266 98.5763 53.314 98.903C53.4632 99.0726 53.6216 99.2346 53.7874 99.3898C53.8822 99.4784 54.0064 99.556 54.087 99.655C54.2837 99.8965 54.3251 99.698 54.2236 100.052C54.0818 100.548 53.7602 101.037 53.5633 101.519C53.3604 102.017 53.177 102.52 53.0092 103.029C52.6695 104.059 52.3822 105.108 52.2026 106.175C51.8576 108.224 51.9182 110.407 52.9327 112.287C53.3665 113.091 53.9887 113.796 54.7435 114.345C55.1129 114.614 55.513 114.845 55.9328 115.035C56.1484 115.133 56.4238 115.175 56.5222 115.374C56.6281 115.588 56.4709 116.014 56.435 116.253C56.1231 118.337 55.9667 120.524 56.6151 122.566C57.2124 124.447 58.5274 126.107 60.2347 127.207C63.5467 129.339 68.0112 129.219 71.4913 127.512C72.3984 127.067 73.2471 126.514 74.0042 125.862C75.932 128.341 79.899 128.263 82.7165 127.556C86.2267 126.676 89.0434 124.345 90.6662 121.282C92.8852 123.862 97.5422 123.025 99.081 120.226C99.4577 119.541 99.6811 118.786 99.791 118.022C99.8489 117.62 99.812 117.215 99.8555 116.816C99.9109 116.308 100.266 115.815 100.47 115.324C100.868 114.367 101.115 113.38 101.125 112.348C101.131 111.81 101.06 111.285 101.006 110.751C100.958 110.27 101.097 109.822 101.177 109.347C100.276 109.489 99.1796 109.257 98.3314 109.008C97.499 108.763 96.7195 108.119 96.132 107.53C94.7679 106.164 93.9346 104.372 93.3647 102.589C92.1137 98.6757 92.6265 93.9805 96.7475 91.8328C98.6673 90.8323 104.419 90.8356 106.705 91.3301C109.109 91.85 111.835 96.9169 111.969 97.3932C112.052 97.688 112.01 98.0528 112.294 98.2492C112.917 98.681 113.944 97.9316 114.404 97.5617C115.197 96.9234 115.763 96.074 116.252 95.2131C117.32 93.3375 118.18 91.3261 118.788 89.2728C119.257 87.6898 119.557 86.0574 120.169 84.5147C120.779 82.9797 121.739 81.6076 123.233 80.738C124.859 79.7921 126.721 79.2938 128.506 78.6994C130.274 78.1102 132.012 77.3901 133.383 76.14C133.684 75.8651 133.977 75.573 134.22 75.2494C134.411 74.9939 134.6 74.5047 134.892 74.3427C135.346 74.0907 136.008 74.7461 136.4 74.984C138.336 76.1581 139.95 77.7956 141.253 79.5844C142.548 81.3634 143.61 83.0753 144.474 85.0618C145.114 86.5352 145.514 88.4221 146.641 89.6295C147.144 90.1687 150.882 90.4948 152.093 90.0241C153.304 89.5535 154.661 88.3312 155.068 87.5653C155.484 86.7813 155.583 85.9201 155.405 85.0618C155.301 84.5569 155.087 84.0852 154.97 83.5893C154.872 83.1727 154.783 82.7789 154.57 82.3973C154.168 81.6741 153.481 81.1543 152.652 80.9369C153.514 80.1772 154.229 79.2684 154.724 78.2524C155.238 77.1969 155.673 75.9134 155.797 74.7549C155.898 73.814 155.742 72.8391 155.203 72.0305C154.637 71.1823 153.635 70.6289 152.768 70.0998C154.093 69.1099 155.226 67.9062 156.158 66.5734C157.971 63.9816 159.092 60.7146 158.171 57.6246Z" fill="#191847"/>
</g>
<defs>
<clipPath id="clip0_161:115">
<rect width="107" height="126" fill="white" transform="translate(51.5 42)"/>
</clipPath>
</defs>
</svg>
