<svg width="554" height="520" viewBox="0 0 554 520" fill="none" xmlns="http://www.w3.org/2000/svg">
<g clip-path="url(#clip0_49_101)">
<path d="M524.132 469.357L524.988 448.673C533.917 443.547 543.876 440.839 554 440.785C540.066 453.02 541.807 476.605 532.361 493.059C529.378 498.166 525.363 502.487 520.614 505.702C515.864 508.916 510.503 510.941 504.925 511.628L493.265 519.295C491.665 509.715 492.018 499.877 494.299 490.457C496.58 481.038 500.736 472.262 506.479 464.733C509.74 460.544 513.479 456.813 517.608 453.627C520.401 461.536 524.132 469.357 524.132 469.357Z" fill="#F2F2F2"/>
<path d="M454.892 518.04C480.7 518.04 501.621 495.57 501.621 467.852C501.621 440.134 480.7 417.664 454.892 417.664C429.085 417.664 408.163 440.134 408.163 467.852C408.163 495.57 429.085 518.04 454.892 518.04Z" fill="#B5D438"/>
<path d="M435.821 448.221C435.18 451.922 434.128 455.527 432.689 458.96C424.446 477.688 447.92 471.584 456.309 471.584C465.482 471.584 474.257 476.764 472.917 453.747C472.345 443.915 465.482 435.91 456.309 435.91C448.475 435.91 437.46 439.65 435.821 448.221Z" fill="#2F2E41"/>
<path d="M454.935 471.579C462.388 471.579 468.431 465.09 468.431 457.085C468.431 449.08 462.388 442.59 454.935 442.59C447.482 442.59 441.439 449.08 441.439 457.085C441.439 465.09 447.482 471.579 454.935 471.579Z" fill="#FFB6B6"/>
<path d="M445.77 442.309C448.135 440.761 450.844 439.923 453.613 439.884C456.382 439.845 459.111 440.606 461.513 442.087C463.915 443.567 465.902 445.714 467.268 448.303C468.633 450.891 469.325 453.825 469.273 456.8C462.396 458.654 455.172 460.073 447.838 457.243L446.106 452.691L445.085 457.247C442.852 458.227 440.613 459.056 438.374 457.237C438.282 454.271 438.917 451.332 440.215 448.712C441.513 446.093 443.429 443.885 445.77 442.309Z" fill="#2F2E41"/>
<path d="M491.226 501.224C483.13 511.117 471.737 517.195 459.505 518.144C447.274 519.093 435.185 514.839 425.849 506.298L429.857 494.287C430.763 492.153 432.192 490.325 433.992 488.998C435.792 487.67 437.894 486.894 440.073 486.752L442.623 486.584L448.703 480.952C448.703 480.952 465.085 480.324 464.842 480.023L474.765 486.434L474.757 486.39L478.658 486.646C480.837 486.787 482.94 487.563 484.74 488.891C486.539 490.218 487.969 492.047 488.874 494.18L491.226 501.224Z" fill="#3F3D56"/>
<path d="M93.4577 114.095C93.4413 124.021 90.6847 133.719 85.5364 141.963C80.3882 150.206 73.0795 156.625 64.5347 160.407C55.9898 164.19 46.5926 165.166 37.5313 163.212C28.47 161.258 20.1516 156.462 13.6281 149.431C7.1045 142.4 2.66878 133.449 0.881814 123.71C-0.905155 113.971 0.0368822 103.882 3.58881 94.7177C7.14075 85.5538 13.143 77.727 20.8366 72.2269C28.5303 66.7268 37.5697 63.8006 46.8117 63.8182C52.9528 63.8128 59.0342 65.1108 64.7067 67.6377C70.3791 70.1646 75.5307 73.8706 79.8653 78.5426C84.2 83.2147 87.6322 88.7607 89.9649 94.8619C92.2975 100.963 93.4845 107.499 93.4577 114.095Z" fill="#F2F2F2"/>
<path d="M25.0704 97.6798C27.0026 91.0661 31.3966 85.0002 37.4733 82.7644C43.5503 80.5286 52.4487 83.9345 57.0173 88.8246C65.3741 97.7697 67.4135 128.499 61.672 138.21C60.53 138.145 56.5894 138.097 55.4336 138.051L53.7985 132.198V137.993C51.9571 137.932 50.1013 137.89 48.231 137.866C41.9605 137.783 35.9643 135.092 31.5031 130.358C27.0418 125.625 24.463 119.218 24.3088 112.485C24.1592 106.044 24.309 100.286 25.0704 97.6798Z" fill="#CCCCCC"/>
<path d="M46.0359 119.599C53.3909 119.599 59.3533 113.196 59.3533 105.296C59.3533 97.3967 53.3909 90.9929 46.0359 90.9929C38.6809 90.9929 32.7185 97.3967 32.7185 105.296C32.7185 113.196 38.6809 119.599 46.0359 119.599Z" fill="#CCCCCC"/>
<path d="M34.5425 92.7343L49.8762 84.488C53.0111 86.0052 55.711 88.3956 57.6958 91.4112C59.6807 94.4267 60.8782 97.9577 61.1643 101.638L61.5465 106.555L55.1255 104.799L54.422 98.5121L53.3316 104.309L50.3684 103.499L50.3966 93.7383L47.4315 103.492L36.8481 100.881L34.5425 92.7343Z" fill="#CCCCCC"/>
<path d="M81.4048 147.218C73.3092 157.111 61.9158 163.189 49.6843 164.138C37.4527 165.088 25.3641 160.833 16.0281 152.293L20.0361 140.281C20.9419 138.148 22.3712 136.319 24.1709 134.992C25.9706 133.665 28.0727 132.888 30.2519 132.747L32.8017 132.579L38.8817 126.947C38.8817 126.947 55.264 126.318 55.021 126.017L64.9443 132.428L64.936 132.384L68.8369 132.64C71.0163 132.782 73.1186 133.557 74.9184 134.885C76.7182 136.212 78.1474 138.041 79.0527 140.175L81.4048 147.218Z" fill="#CCCCCC"/>
<path d="M47.0616 394.69C72.8693 394.69 93.7905 372.22 93.7905 344.502C93.7905 316.784 72.8693 294.314 47.0616 294.314C21.254 294.314 0.332764 316.784 0.332764 344.502C0.332764 372.22 21.254 394.69 47.0616 394.69Z" fill="#F2F2F2"/>
<path d="M27.9907 324.872C27.3494 328.572 26.2977 332.177 24.8582 335.61C16.6152 354.338 40.0898 348.234 48.4788 348.234C57.651 348.234 66.4268 353.414 65.0865 330.397C64.5139 320.565 57.6509 312.56 48.4788 312.56C40.6443 312.56 29.6289 316.3 27.9907 324.872Z" fill="#CCCCCC"/>
<path d="M47.1045 348.229C54.5579 348.229 60.6002 341.74 60.6002 333.735C60.6002 325.73 54.5579 319.24 47.1045 319.24C39.6511 319.24 33.6089 325.73 33.6089 333.735C33.6089 341.74 39.6511 348.229 47.1045 348.229Z" fill="#CCCCCC"/>
<path d="M37.9395 318.96C40.3044 317.411 43.0132 316.574 45.7826 316.534C48.552 316.495 51.2804 317.256 53.6824 318.737C56.0844 320.218 58.0719 322.365 59.437 324.953C60.8022 327.541 61.4947 330.476 61.4424 333.45C54.5657 335.304 47.3412 336.723 40.0078 333.893L38.2759 329.341L37.2548 333.897C35.0215 334.877 32.7824 335.707 30.5433 333.887C30.4519 330.921 31.0869 327.982 32.3848 325.362C33.6827 322.743 35.5981 320.535 37.9395 318.96Z" fill="#CCCCCC"/>
<path d="M83.3955 377.874C75.2999 387.767 63.9066 393.845 51.675 394.794C39.4434 395.744 27.3548 391.489 18.0188 382.948L22.0268 370.937C22.9326 368.803 24.3619 366.975 26.1616 365.648C27.9613 364.32 30.0634 363.544 32.2426 363.402L34.7924 363.234L40.8724 357.602C40.8724 357.602 57.2548 356.974 57.0117 356.673L66.935 363.084L66.9268 363.04L70.8277 363.296C73.007 363.437 75.1094 364.213 76.9092 365.541C78.7089 366.868 80.1382 368.697 81.0435 370.831L83.3955 377.874Z" fill="#CCCCCC"/>
<path d="M248.102 348.821C289.887 348.821 323.76 312.441 323.76 267.563C323.76 222.685 289.887 186.305 248.102 186.305C206.317 186.305 172.444 222.685 172.444 267.563C172.444 312.441 206.317 348.821 248.102 348.821Z" fill="#F2F2F2"/>
<path d="M251.185 275.852C264.811 275.852 275.856 263.989 275.856 249.355C275.856 234.721 264.811 222.858 251.185 222.858C237.56 222.858 226.515 234.721 226.515 249.355C226.515 263.989 237.56 275.852 251.185 275.852Z" fill="#CCCCCC"/>
<path d="M272.907 231.851C272.907 231.851 279.331 218.662 265.199 217.463C265.199 217.463 253.151 205.726 240.872 215.317C240.872 215.317 234.174 215.317 230.511 223.458C230.511 223.458 225.243 221.312 224.086 227.055C224.086 227.055 220.231 239.044 224.086 249.835C227.94 260.626 229.221 261.825 229.221 261.825C229.221 261.825 226.516 248.434 241.934 247.235C257.352 246.036 271.496 235.663 272.781 248.851C274.066 262.04 275.478 256.082 275.478 256.082C275.478 256.082 287.682 237.246 272.907 231.851Z" fill="#CCCCCC"/>
<path d="M304.582 321.595C291.474 337.613 273.028 347.453 253.224 348.99C233.42 350.527 213.847 343.638 198.731 329.811L205.221 310.363C206.687 306.909 209.002 303.948 211.915 301.799C214.829 299.65 218.233 298.394 221.761 298.164L225.889 297.892L235.733 288.773C235.733 288.773 262.258 287.756 261.864 287.269L277.931 297.648L277.918 297.577L284.233 297.992C287.762 298.221 291.166 299.477 294.08 301.626C296.994 303.775 299.308 306.736 300.774 310.191L304.582 321.595Z" fill="#CCCCCC"/>
<path d="M123.492 267.831C149.3 267.831 170.221 245.361 170.221 217.643C170.221 189.925 149.3 167.456 123.492 167.456C97.6847 167.456 76.7634 189.925 76.7634 217.643C76.7634 245.361 97.6847 267.831 123.492 267.831Z" fill="#F2F2F2"/>
<path d="M122.203 223.861C130.441 223.861 137.119 216.688 137.119 207.84C137.119 198.992 130.441 191.82 122.203 191.82C113.965 191.82 107.286 198.992 107.286 207.84C107.286 216.688 113.965 223.861 122.203 223.861Z" fill="#CCCCCC"/>
<path d="M158.549 251.223C150.454 261.116 139.06 267.194 126.829 268.143C114.597 269.092 102.509 264.838 93.1726 256.297L97.1806 244.286C98.0864 242.152 99.5157 240.324 101.315 238.997C103.115 237.669 105.217 236.893 107.396 236.751L109.946 236.583L116.026 230.951C116.026 230.951 132.409 230.323 132.165 230.022L142.089 236.433L142.081 236.389L145.981 236.645C148.161 236.786 150.263 237.562 152.063 238.89C153.863 240.217 155.292 242.046 156.197 244.18L158.549 251.223Z" fill="#CCCCCC"/>
<path d="M137.935 197.904C136.674 193.059 133.81 188.874 129.881 186.136C126.749 183.984 122.841 182.886 119.293 184.024C115.746 185.161 112.808 188.901 113.041 192.941C112.383 192.756 111.691 192.772 111.042 192.987C110.392 193.202 109.812 193.609 109.367 194.16C108.477 195.288 107.858 196.634 107.564 198.079C106.426 202.609 106.501 207.392 107.782 211.878L107.711 212.522C109.442 212.215 110.755 210.62 111.571 208.92C112.388 207.221 112.858 205.335 113.743 203.678C114.627 202.02 116.097 200.541 117.85 200.489L117.695 203.367L122.219 200.863C121.861 201.785 121.502 202.707 121.143 203.628C122.46 203.037 123.777 202.446 125.094 201.855C124.947 202.741 124.8 203.627 124.653 204.513C124.998 203.744 125.485 203.058 126.084 202.497C126.684 201.935 127.383 201.51 128.139 201.248C128.896 200.985 129.694 200.89 130.486 200.968C131.278 201.046 132.047 201.296 132.746 201.703C134.321 202.841 135.456 204.556 135.94 206.528C136.418 208.495 136.675 210.517 136.704 212.55C138.74 207.985 139.176 202.786 137.935 197.904Z" fill="#CCCCCC"/>
<path d="M222.658 258.066V258.096C222.616 257.986 222.588 257.87 222.575 257.752L222.658 258.066Z" fill="#F2F2F2"/>
<path d="M222.658 258.096C222.728 258.409 222.811 258.723 222.895 259.021C222.781 259.055 222.664 259.08 222.547 259.096L222.658 258.096Z" fill="#F2F2F2"/>
<path d="M323.759 267.396C323.756 288.392 316.185 308.573 302.634 323.706C289.082 338.84 270.602 347.751 251.068 348.573V186.219C270.604 187.036 289.086 195.946 302.638 211.081C316.191 226.215 323.76 246.398 323.759 267.396Z" fill="#B5D438"/>
<path d="M222.575 257.752L222.658 258.066V258.096C222.616 257.986 222.588 257.87 222.575 257.752Z" fill="#FFB6B6"/>
<path d="M270.165 251.528C270.169 253.672 269.922 255.809 269.428 257.887V257.902C268.317 262.589 266.01 266.85 262.766 270.204C259.522 273.559 255.471 275.875 251.068 276.89V226.15C256.472 227.398 261.316 230.597 264.791 235.215C268.266 239.833 270.162 245.59 270.165 251.528Z" fill="#A0616A"/>
<path d="M304.856 321.762C298.103 330.036 289.85 336.744 280.602 341.477C271.354 346.21 261.305 348.868 251.068 349.289V288.28C256.975 287.981 262.326 287.668 262.145 287.444L278.212 297.818L278.198 297.744L284.508 298.162C288.037 298.387 291.442 299.641 294.357 301.79C297.271 303.939 299.585 306.902 301.048 310.358L304.704 321.3L304.856 321.762Z" fill="#3F3D56"/>
<path d="M222.658 258.096C222.728 258.409 222.811 258.723 222.895 259.021C222.781 259.055 222.664 259.08 222.547 259.096L222.658 258.096Z" fill="#2F2E41"/>
<path d="M269.498 259.141C269.47 258.723 269.456 258.32 269.428 257.902V257.887C269.348 255.016 268.956 252.166 268.261 249.393C267.357 246.258 265.661 243.258 263.09 241.586C259.24 239.078 253.833 240.436 251.068 244.198V212.895C253.685 213.629 256.177 214.808 258.448 216.388C264.81 220.819 269.446 227.592 271.485 235.435C273.493 243.337 272.787 251.751 269.498 259.141Z" fill="#2F2E41"/>
<path d="M250.028 520C249.788 520.013 249.553 519.923 249.374 519.75C249.196 519.577 249.088 519.336 249.075 519.078V0.921958C249.1 0.668992 249.211 0.434766 249.387 0.2645C249.562 0.0942336 249.791 0 250.028 0C250.265 0 250.493 0.0942336 250.669 0.2645C250.845 0.434766 250.956 0.668992 250.98 0.921958V519.078C250.967 519.336 250.86 519.577 250.681 519.75C250.503 519.923 250.268 520.013 250.028 520Z" fill="#2F2E41"/>
<path d="M344.941 242.202L318.622 235.268L283.533 203.229L289.377 193.267L321.163 215.015C321.163 215.015 342.193 220.749 349.386 227.362L344.941 242.202Z" fill="#FFB6B6"/>
<path d="M284.755 203.835C288.296 203.835 291.166 200.752 291.166 196.949C291.166 193.146 288.296 190.062 284.755 190.062C281.214 190.062 278.343 193.146 278.343 196.949C278.343 200.752 281.214 203.835 284.755 203.835Z" fill="#FFB6B6"/>
<path d="M346.177 223.661L321.77 212.973L310.04 227.933L318.755 235.644L342.511 242.275L342.527 242.342C344.196 248.947 354.924 253.431 363.631 256.03C366.502 256.884 369.569 256.535 372.21 255.054C374.851 253.573 376.871 251.07 377.86 248.052C378.575 245.82 378.695 243.417 378.206 241.115C377.717 238.814 376.638 236.705 375.091 235.028L367.185 226.513L346.177 223.661Z" fill="#E6E6E6"/>
<path d="M278.693 492.297L270.139 488.801L278.622 451.705L291.246 456.864L278.693 492.297Z" fill="#FFB6B6"/>
<path d="M281.937 490.189L279.53 489.205L271.585 481.259L265.093 483.305L265.092 483.305C262.245 482.142 259.085 482.241 256.305 483.58C253.526 484.92 251.357 487.39 250.273 490.448L250.141 490.823L277.72 502.093L281.937 490.189Z" fill="#2F2E41"/>
<path d="M365.157 507.698L356.006 507.697L351.652 469.786L365.159 469.787L365.157 507.698Z" fill="#FFB6B6"/>
<path d="M367.492 504.489L364.916 504.489L354.859 500.096L349.469 504.488H349.468C346.422 504.488 343.501 505.788 341.347 508.101C339.193 510.414 337.983 513.552 337.983 516.823V517.224L367.491 517.226L367.492 504.489Z" fill="#2F2E41"/>
<path d="M379.112 344.399C379.112 344.399 380.181 358.171 377.509 371.37C375.834 379.644 375.209 397.337 374.976 409.39C374.837 416.565 371.833 417.708 371.833 417.708L373.826 434.207L368.96 494.175L351.328 492.453L346.519 371.37L314.828 398.284L315.707 401.431C316.135 402.962 312.982 402.766 311.721 403.613L308.611 411.36C308.672 412.641 308.366 413.911 307.735 414.999C307.103 416.087 306.176 416.941 305.079 417.447L288.564 470.213L275.687 461.915L279.979 413.972L285.988 391.844L310.187 359.893L310.721 350.711L313.125 350.817L314.35 346.981L316.598 340.382L379.112 344.399Z" fill="#2F2E41"/>
<path d="M380.035 347.292L380.131 347.148C385.216 339.501 377.567 321.125 376.414 318.461C377.784 317.983 378.957 317.011 379.734 315.708C380.511 314.406 380.844 312.854 380.676 311.318L380.179 306.778L379.66 302.324L383.374 298.336L383.384 298.236L385.522 278.151L388.629 264.811C389.8 259.768 389.7 254.481 388.34 249.493C386.98 244.505 384.408 239.996 380.889 236.428L373.706 229.154L364.977 215.282H350.9L346.073 225.074C341.394 226.235 337.242 229.123 334.341 233.235C331.44 237.346 329.974 242.42 330.198 247.573L331.292 273.254L327.009 305.23L327.007 311.016L324.776 313.679C323.973 314.638 323.389 315.785 323.071 317.029C322.754 318.273 322.711 319.58 322.946 320.845L323.24 322.42C322.106 322.942 321.105 323.748 320.322 324.771C319.538 325.794 318.994 327.004 318.736 328.299L317.952 332.225C317.282 333.175 312.858 339.511 312.858 341.243C312.858 341.503 313.037 341.754 313.42 342.033C316.435 344.225 333.099 348.695 340.474 345.526C348.33 342.152 379.559 347.213 379.873 347.265L380.035 347.292Z" fill="#E6E6E6"/>
<path d="M356.12 210.803C366.416 210.803 374.763 201.839 374.763 190.78C374.763 179.721 366.416 170.757 356.12 170.757C345.823 170.757 337.477 179.721 337.477 190.78C337.477 201.839 345.823 210.803 356.12 210.803Z" fill="#FFB6B6"/>
<path d="M350.04 278.739L337.089 304.304L299.299 332.579L291.819 323.971L319.501 296.503C319.501 296.503 330.025 276.124 337.812 270.34L350.04 278.739Z" fill="#FFB6B6"/>
<path d="M293.956 336.596C297.497 336.596 300.368 333.513 300.368 329.71C300.368 325.907 297.497 322.823 293.956 322.823C290.415 322.823 287.544 325.907 287.544 329.71C287.544 333.513 290.415 336.596 293.956 336.596Z" fill="#FFB6B6"/>
<path d="M348.874 282.147L357.018 261.154L354.073 249.552C353.487 247.277 352.32 245.223 350.704 243.623C349.088 242.022 347.088 240.939 344.929 240.496C341.998 239.916 338.972 240.552 336.462 242.277C333.952 244.002 332.146 246.686 331.408 249.786C329.177 259.192 327.464 271.419 331.97 276.257L332.015 276.306L318.609 295.084L338.353 307.07L348.874 282.147Z" fill="#E6E6E6"/>
<path d="M374.54 176.982C373.024 174.787 370.845 173.227 369.178 171.163C368.339 169.966 367.437 168.82 366.477 167.733C364.463 165.935 361.922 164.96 359.304 164.981C356.464 164.902 353.646 165.543 351.079 166.851C348.512 168.16 346.268 170.099 344.528 172.512C343.173 171.659 341.819 170.806 340.464 169.953C339.929 171.466 339.394 172.978 338.858 174.491C338.419 174.081 337.859 173.852 337.277 173.843C336.695 173.834 336.129 174.047 335.679 174.444C335.229 174.84 334.925 175.395 334.82 176.01C334.714 176.625 334.815 177.259 335.104 177.802C334.782 176.732 333.305 176.505 332.49 177.212C332.113 177.604 331.833 178.091 331.676 178.629C331.519 179.167 331.49 179.739 331.591 180.292C331.757 181.516 332.261 182.658 333.037 183.572C333.813 184.486 334.826 185.13 335.945 185.42C337.713 185.843 339.771 185.399 341.186 186.613C342.32 187.587 342.662 189.36 343.82 190.301C345.247 191.461 347.263 190.924 349.036 191.181C350.582 191.466 351.972 192.362 352.932 193.694C353.893 195.026 354.353 196.697 354.222 198.375C354.439 197.302 354.851 196.285 355.435 195.383C355.734 194.937 356.147 194.594 356.624 194.395C357.101 194.196 357.622 194.15 358.122 194.263C359.737 194.783 360.002 197.147 359.61 198.909C358.572 203.58 354.638 211.132 354.638 211.132C359.746 213.296 365.833 211.249 369.775 207.142C373.716 203.035 375.769 197.22 376.664 191.4C377.422 186.465 377.314 180.999 374.54 176.982Z" fill="#2F2E41"/>
<path d="M543.302 517.981C543.302 518.125 543.276 518.268 543.225 518.401C543.174 518.534 543.098 518.656 543.003 518.758C542.909 518.86 542.796 518.94 542.672 518.995C542.547 519.05 542.414 519.078 542.28 519.078H301.667C301.396 519.078 301.136 518.962 300.945 518.757C300.753 518.551 300.646 518.272 300.646 517.981C300.646 517.69 300.753 517.411 300.945 517.205C301.136 516.999 301.396 516.884 301.667 516.884H542.28C542.414 516.883 542.547 516.911 542.672 516.966C542.796 517.021 542.909 517.102 543.003 517.204C543.098 517.306 543.174 517.427 543.225 517.56C543.276 517.694 543.302 517.837 543.302 517.981Z" fill="#CCCCCC"/>
</g>
<defs>
<clipPath id="clip0_49_101">
<rect width="554" height="520" fill="white"/>
</clipPath>
</defs>
</svg>
