<svg width="732" height="612" viewBox="0 0 732 612" fill="none" xmlns="http://www.w3.org/2000/svg">
<rect width="1324" height="3454" transform="translate(-88 -1943)" fill="white"/>
<g clip-path="url(#clip0_53:68)">
<path d="M31.5579 462.064C36.0397 416.317 63.1282 370.652 106.229 354.679C90.3024 402.06 91.6485 453.548 110.029 500.032C117.183 517.934 127.003 537.1 121.193 555.481C117.577 566.918 108.236 575.84 97.6831 581.542C87.1294 587.244 75.3274 590.138 63.6727 592.976L61.4157 594.944C41.7137 553.415 27.0761 507.811 31.5579 462.064Z" fill="#F0F0F0"/>
<path d="M106.683 355.53C82.3476 384.253 67.031 420.937 64.353 458.545C63.774 466.675 63.8943 474.974 65.8755 482.921C67.8662 490.653 71.8911 497.711 77.5319 503.361C82.6857 508.735 88.5797 513.636 92.3373 520.169C96.298 527.055 96.6501 534.988 94.2567 542.475C91.3284 551.635 85.2832 559.197 79.1145 566.386C72.2654 574.369 65.0248 582.552 62.2965 592.969C61.9659 594.231 60.0268 593.644 60.3569 592.384C65.1036 574.26 82.2988 563.587 90.2038 547.169C93.8923 539.507 95.2945 530.688 91.4436 522.803C88.0762 515.908 82.0026 510.849 76.7373 505.453C71.2087 499.787 66.9196 493.524 64.5952 485.891C62.2174 478.084 61.7725 469.773 62.141 461.664C63.114 443.28 66.9713 425.164 73.5719 407.978C80.9962 388.323 91.7282 370.082 105.303 354.046C106.144 353.054 107.518 354.544 106.683 355.53L106.683 355.53Z" fill="white"/>
<path d="M64.5786 446.275C58.281 444.918 52.6705 441.368 48.7491 436.257C44.8277 431.146 42.8507 424.808 43.1712 418.374C43.1867 418.111 43.3033 417.865 43.4967 417.687C43.69 417.51 43.9448 417.414 44.2075 417.42C44.4701 417.426 44.7201 417.534 44.9047 417.721C45.0893 417.908 45.1941 418.159 45.197 418.422C44.8875 424.413 46.7297 430.317 50.391 435.069C54.0523 439.82 59.2917 443.107 65.1634 444.335C66.4391 444.603 65.8469 446.541 64.5786 446.275Z" fill="white"/>
<path d="M74.5599 500.981C85.6866 493.937 93.7498 482.959 97.1416 470.234C97.4766 468.973 99.4159 469.56 99.0813 470.819C95.5269 484.054 87.1127 495.461 75.5179 502.766C74.4123 503.461 73.4603 501.672 74.5599 500.981Z" fill="white"/>
<path d="M82.9251 390.192C85.2525 391.225 87.7998 391.663 90.3384 391.468C92.8769 391.272 95.3273 390.45 97.4693 389.073C98.5655 388.364 99.5164 390.154 98.4273 390.858C96.0536 392.368 93.3464 393.273 90.5421 393.495C87.7379 393.717 84.9219 393.249 82.3403 392.132C82.0881 392.047 81.8777 391.869 81.7519 391.635C81.6261 391.4 81.5942 391.127 81.6629 390.87C81.7416 390.613 81.9183 390.398 82.1547 390.271C82.391 390.145 82.6679 390.116 82.9251 390.192H82.9251Z" fill="white"/>
<path d="M240.909 432.668C240.237 433.131 239.565 433.593 238.893 434.072C229.891 440.333 221.413 447.316 213.543 454.95C212.925 455.53 212.307 456.128 211.707 456.725C192.941 475.32 177.79 497.237 167.024 521.363C162.749 530.967 159.211 540.883 156.44 551.023C152.615 565.029 149.581 580.518 141.587 592.101C140.767 593.319 139.872 594.484 138.907 595.592L63.9915 597.545C63.819 597.464 63.6461 597.4 63.4728 597.319L60.4852 597.534C60.5916 597.001 60.7134 596.45 60.8197 595.917C60.8802 595.608 60.9573 595.298 61.0177 594.988C61.0632 594.782 61.1097 594.575 61.1389 594.387C61.1539 594.318 61.1696 594.249 61.185 594.197C61.2143 594.008 61.2615 593.836 61.2913 593.664C61.9635 590.585 62.6585 587.505 63.3763 584.425C63.3759 584.408 63.3759 584.408 63.3921 584.39C68.9214 560.934 76.4576 537.732 87.2756 516.412C87.6013 515.771 87.9257 515.113 88.2856 514.47C93.2153 504.887 98.9199 495.724 105.342 487.07C108.875 482.343 112.644 477.798 116.635 473.452C126.971 462.242 139.005 452.728 152.297 445.258C178.797 430.371 209.762 424.125 238.704 432.042C239.444 432.245 240.168 432.448 240.909 432.668Z" fill="#F0F0F0"/>
<path d="M240.766 433.624C204.042 441.906 169.726 461.974 144.945 490.389C139.588 496.533 134.688 503.231 131.485 510.769C128.419 518.141 127.383 526.2 128.485 534.108C129.365 541.501 131.121 548.963 130.187 556.441C129.204 564.324 124.709 570.87 118.29 575.407C110.437 580.958 101.057 583.356 91.8035 585.383C81.5288 587.632 70.821 589.807 62.3708 596.482C61.3469 597.29 60.1519 595.654 61.1742 594.847C75.8761 583.234 96.0312 585.065 112.228 576.715C119.786 572.818 126.215 566.621 127.888 558.006C129.351 550.473 127.547 542.778 126.592 535.299C125.589 527.446 125.935 519.863 128.674 512.37C131.476 504.705 136.125 497.801 141.302 491.548C153.147 477.455 167.134 465.313 182.751 455.565C200.513 444.342 220.063 436.239 240.558 431.608C241.826 431.322 242.026 433.339 240.766 433.624H240.766Z" fill="white"/>
<path d="M152.513 480.728C148.301 475.854 145.959 469.641 145.905 463.199C145.851 456.758 148.089 450.507 152.219 445.562C153.058 444.565 154.647 445.822 153.807 446.821C149.953 451.417 147.869 457.241 147.932 463.239C147.994 469.238 150.199 475.016 154.148 479.532C155.005 480.514 153.365 481.705 152.513 480.728Z" fill="white"/>
<path d="M127.546 530.417C140.67 531.493 153.718 527.582 164.087 519.464C165.114 518.659 166.309 520.295 165.284 521.099C154.478 529.526 140.891 533.568 127.236 532.419C125.934 532.309 126.251 530.308 127.546 530.417H127.546Z" fill="white"/>
<path d="M200.927 446.996C202.164 449.221 203.934 451.105 206.078 452.477C208.223 453.85 210.674 454.668 213.213 454.859C214.516 454.953 214.197 456.954 212.904 456.861C210.099 456.637 207.393 455.73 205.02 454.219C202.647 452.708 200.681 450.639 199.292 448.192C199.142 447.973 199.081 447.704 199.122 447.441C199.163 447.178 199.302 446.941 199.511 446.777C199.729 446.619 199.999 446.554 200.264 446.595C200.529 446.636 200.768 446.78 200.927 446.996Z" fill="white"/>
<path d="M680.599 52.1378C679.48 48.835 665.454 37.6079 674.049 35.7209L681.097 45.1195L713.504 12.7135L716.763 15.9728L680.599 52.1378Z" fill="#A2B742"/>
<path d="M680.599 162.332C679.48 159.029 665.454 147.802 674.049 145.915L681.097 155.314L713.504 122.908L716.763 126.167L680.599 162.332Z" fill="#A2B742"/>
<path d="M680.599 274.1C679.48 270.797 665.454 259.57 674.049 257.683L681.097 267.082L713.504 234.676L716.763 237.935L680.599 274.1Z" fill="#A2B742"/>
<path d="M650.758 183.738C656.28 183.738 660.758 179.261 660.758 173.738C660.758 168.215 656.28 163.738 650.758 163.738C645.235 163.738 640.758 168.215 640.758 173.738C640.758 179.261 645.235 183.738 650.758 183.738Z" fill="#3F3D56"/>
<path d="M650.758 74.7383C656.28 74.7383 660.758 70.2611 660.758 64.7383C660.758 59.2154 656.28 54.7383 650.758 54.7383C645.235 54.7383 640.758 59.2154 640.758 64.7383C640.758 70.2611 645.235 74.7383 650.758 74.7383Z" fill="#3F3D56"/>
<path d="M655.758 299.932C661.28 299.932 665.758 295.455 665.758 289.932C665.758 284.409 661.28 279.932 655.758 279.932C650.235 279.932 645.758 284.409 645.758 289.932C645.758 295.455 650.235 299.932 655.758 299.932Z" fill="#3F3D56"/>
<path d="M705.856 289H655.856V238H689.856V240H657.856V287H703.856V264H705.856V289Z" fill="#3F3D56"/>
<path d="M705.856 177H655.856V126H689.856V128H657.856V175H703.856V152H705.856V177Z" fill="#3F3D56"/>
<path d="M705.856 63H655.856V12H689.856V14H657.856V61H703.856V38H705.856V63Z" fill="#3F3D56"/>
<path d="M379.4 193.772C379.4 193.772 366.038 250.193 382.37 250.193C398.702 250.193 437.306 186.348 437.306 186.348L423.943 170.015L399.959 203.315L398.702 186.348L379.4 193.772Z" fill="#A0616A"/>
<path d="M433.746 188.801C440.925 188.801 446.746 182.98 446.746 175.801C446.746 168.621 440.925 162.801 433.746 162.801C426.566 162.801 420.746 168.621 420.746 175.801C420.746 182.98 426.566 188.801 433.746 188.801Z" fill="#A0616A"/>
<path d="M368.071 578.048L385.374 578.047L393.607 511.301L368.067 511.302L368.071 578.048Z" fill="#A0616A"/>
<path d="M367.461 596.1L420.674 596.098V595.425C420.673 589.932 418.491 584.664 414.607 580.78C410.723 576.895 405.455 574.713 399.962 574.713H399.96L390.24 567.339L372.105 574.714L367.46 574.714L367.461 596.1Z" fill="#2F2E41"/>
<path d="M181.934 556.459L197.417 564.185L234.589 508.14L211.737 496.736L181.934 556.459Z" fill="#A0616A"/>
<path d="M173.327 572.338L220.94 596.1L221.241 595.497C223.693 590.582 224.093 584.894 222.352 579.685C220.611 574.475 216.872 570.17 211.958 567.716L211.957 567.716L206.553 556.777L187.032 555.278L182.876 553.203L173.327 572.338Z" fill="#2F2E41"/>
<path d="M572.746 596.165H2.89575V598.406H572.746V596.165Z" fill="#CCCCCC"/>
<path d="M256.194 296.128C256.194 296.128 249.279 379.276 247.794 397.094C246.776 408.262 244.279 419.247 240.37 429.759C240.37 429.759 237.401 435.698 237.401 441.637L203.746 502.801C203.746 502.801 193.461 510.36 194.946 516.299C196.431 522.238 188.746 525.801 188.746 525.801L224.187 532.631C224.187 532.631 222.703 528.177 227.157 526.692C231.611 525.208 235.157 512.329 235.157 512.329L284.913 431.243L320.548 357.005C320.548 357.005 341.334 423.82 345.789 431.243C345.789 431.243 362.121 514.39 365.091 521.814C368.06 529.238 369.545 529.238 368.06 532.208C366.575 535.177 366.575 538.147 368.06 539.631C369.545 541.116 397.755 539.631 397.755 539.631L390.332 434.213L376.969 308.007L308.669 287.221L256.194 296.128Z" fill="#2F2E41"/>
<path d="M323.063 97.6317C340.283 97.6317 354.243 83.6719 354.243 66.4516C354.243 49.2313 340.283 35.2715 323.063 35.2715C305.842 35.2715 291.883 49.2313 291.883 66.4516C291.883 83.6719 305.842 97.6317 323.063 97.6317Z" fill="#A0616A"/>
<path d="M379.938 143.198L342.82 120.709C342.82 120.709 341.791 106.745 331.216 106.088C325.906 105.758 317.938 105.253 305.981 104.482C303.454 104.319 301.749 118.145 298.853 117.957L259.672 128.35L265.611 229.315C265.611 229.315 256.702 269.403 259.672 276.827C262.641 284.251 252.248 287.221 255.218 288.705C258.187 290.19 255.218 300.584 255.218 300.584C255.218 300.584 313.124 330.279 376.969 308.007L371.03 288.705C371.838 286.182 371.989 283.495 371.47 280.897C370.95 278.299 369.777 275.876 368.06 273.858C368.06 273.858 373.999 264.949 366.575 257.525C366.575 257.525 369.545 244.162 362.121 238.223L360.636 217.436L365.09 207.043L379.938 143.198Z" fill="#E6E6E6"/>
<path d="M296.006 84.2639L295.135 82.2395C295.022 81.9778 283.996 55.9104 293.77 39.8313C298.294 32.3875 306.521 28.1848 318.221 27.3411C336.528 26.0174 349.058 30.3601 355.472 40.2395C356.548 41.9139 357.152 43.8471 357.222 45.8359C357.292 47.8247 356.825 49.7955 355.87 51.5413C354.914 53.2871 353.506 54.7433 351.794 55.7567C350.081 56.7702 348.127 57.3035 346.137 57.3005H345.891L342.527 52.9329L342.332 53.3577C341.114 55.9924 338.317 57.4348 335.041 57.1189C334.484 57.0789 333.99 57.5598 333.594 58.5891C333.46 59.0394 333.208 59.4454 332.864 59.7646C332.519 60.0838 332.095 60.3043 331.636 60.4031C329.216 60.8743 325.766 57.8255 324.221 56.3059C324.162 56.6557 324.028 56.9885 323.828 57.282C323.629 57.5755 323.369 57.8228 323.066 58.0071C321.439 58.9461 318.906 57.7195 318.179 57.3289C312.387 58.5594 308.638 58.2303 307.032 56.3518C305.943 64.0554 303.606 77.9217 300.804 78.6902C300.511 78.7576 300.205 78.729 299.929 78.6086C299.654 78.4882 299.424 78.2825 299.275 78.0218C298.6 77.1458 297.997 76.7093 297.621 76.8318C296.709 77.1218 296.171 80.1238 296.094 82.0613L296.006 84.2639Z" fill="#2F2E41"/>
<path d="M363.606 144.683L378.417 142.277C389.086 152.528 396.354 165.805 399.24 180.317C403.695 204.074 405.179 208.528 405.179 208.528L369.545 217.437L350.243 180.317L363.606 144.683Z" fill="#E6E6E6"/>
<path d="M297.883 175.583L288.73 291.617L522.315 310.043L531.468 194.008L297.883 175.583Z" fill="white"/>
<path d="M322.838 184.572C317.122 180.49 309.864 180.195 307.092 180.254C307.938 182.894 310.566 189.665 316.283 193.749C322.013 197.842 329.262 198.128 332.03 198.071C331.184 195.432 328.556 188.657 322.838 184.572Z" fill="#A2B742"/>
<path d="M345.389 258.407L307.882 255.449C306.774 255.361 305.659 255.493 304.602 255.836C303.545 256.18 302.565 256.728 301.72 257.45C300.874 258.171 300.179 259.053 299.674 260.043C299.17 261.034 298.865 262.114 298.777 263.222C298.69 264.33 298.822 265.445 299.165 266.502C299.508 267.559 300.057 268.539 300.778 269.384C301.5 270.23 302.381 270.925 303.372 271.43C304.362 271.934 305.442 272.239 306.551 272.327L344.058 275.285C346.296 275.462 348.513 274.742 350.22 273.284C351.927 271.827 352.986 269.75 353.162 267.512C353.339 265.274 352.619 263.057 351.161 261.35C349.704 259.642 347.627 258.584 345.389 258.407Z" fill="#A2B742"/>
<path d="M522.259 182.73L311.969 166.14C309.524 165.947 307.064 166.238 304.73 166.996C302.397 167.755 300.235 168.965 298.37 170.558C296.504 172.152 294.97 174.097 293.857 176.283C292.743 178.469 292.07 180.853 291.878 183.299L283.79 285.75C283.402 290.691 284.991 295.584 288.209 299.354C291.427 303.123 296.011 305.46 300.952 305.851L511.242 322.441C513.688 322.634 516.148 322.343 518.481 321.585C520.815 320.827 522.976 319.616 524.842 318.023C526.707 316.43 528.241 314.484 529.355 312.298C530.469 310.112 531.141 307.728 531.334 305.282L539.019 207.907L539.174 205.917L539.419 202.822C539.611 200.376 539.32 197.916 538.562 195.582C537.804 193.249 536.594 191.088 535 189.222C533.407 187.356 531.462 185.823 529.276 184.709C527.089 183.595 524.705 182.922 522.259 182.73ZM516.05 271.868L514.717 288.746C514.474 291.727 513.06 294.491 510.785 296.432C508.509 298.374 505.558 299.335 502.576 299.107L474.442 296.89C471.461 296.647 468.698 295.233 466.756 292.958C464.815 290.682 463.853 287.731 464.081 284.749L465.414 267.87C465.659 264.89 467.073 262.127 469.348 260.185C471.623 258.244 474.574 257.282 477.556 257.509L505.679 259.729C508.66 259.973 511.424 261.387 513.366 263.661C515.309 265.935 516.274 268.885 516.05 271.868ZM296.916 263.067C297.134 260.335 298.427 257.802 300.511 256.023C302.594 254.244 305.299 253.364 308.03 253.576L345.536 256.536C346.891 256.641 348.212 257.011 349.423 257.627C350.635 258.242 351.713 259.09 352.597 260.123C353.481 261.155 354.152 262.351 354.573 263.643C354.994 264.935 355.157 266.298 355.051 267.652C354.945 269.007 354.574 270.328 353.957 271.539C353.341 272.75 352.492 273.828 351.459 274.71C350.426 275.593 349.229 276.264 347.937 276.684C346.644 277.104 345.282 277.265 343.927 277.158L343.908 277.163L306.402 274.203C305.048 274.096 303.728 273.723 302.517 273.105C301.307 272.487 300.231 271.636 299.35 270.602C298.469 269.568 297.8 268.37 297.383 267.077C296.965 265.784 296.807 264.421 296.916 263.067ZM304.945 179.585L304.689 178.536L305.768 178.437C306.19 178.391 316.167 177.496 323.933 183.043C331.699 188.591 334.081 198.324 334.184 198.731L334.431 199.783L333.354 199.892C331.826 200.005 330.292 199.995 328.765 199.861C323.91 199.577 319.22 197.993 315.187 195.275C307.421 189.728 305.039 179.994 304.945 179.585Z" fill="#A2B742"/>
<path d="M484.499 283.062L472.309 282.1C471.44 282.033 470.579 282.314 469.917 282.881C469.254 283.447 468.843 284.254 468.774 285.123C468.706 285.993 468.985 286.854 469.551 287.518C470.116 288.181 470.922 288.594 471.792 288.664L483.981 289.625C484.851 289.692 485.711 289.412 486.374 288.845C487.037 288.278 487.448 287.471 487.516 286.602C487.585 285.732 487.306 284.871 486.74 284.208C486.174 283.544 485.368 283.132 484.499 283.062Z" fill="#A2B742"/>
<path d="M507.003 284.837L494.813 283.875C493.944 283.809 493.084 284.09 492.422 284.657C491.76 285.223 491.349 286.03 491.281 286.899C491.212 287.768 491.491 288.629 492.056 289.292C492.622 289.956 493.427 290.368 494.296 290.439L506.486 291.4C507.355 291.467 508.215 291.186 508.877 290.619C509.539 290.052 509.95 289.246 510.018 288.377C510.087 287.508 509.808 286.647 509.243 285.984C508.677 285.32 507.872 284.907 507.003 284.837Z" fill="#A2B742"/>
<path d="M485.165 274.623L472.975 273.661C472.106 273.595 471.246 273.876 470.584 274.442C469.921 275.009 469.511 275.816 469.442 276.685C469.374 277.554 469.653 278.414 470.218 279.078C470.783 279.742 471.588 280.154 472.457 280.225L484.647 281.186C485.517 281.253 486.377 280.973 487.04 280.406C487.703 279.839 488.113 279.032 488.182 278.163C488.251 277.293 487.971 276.432 487.406 275.769C486.84 275.105 486.034 274.693 485.165 274.623Z" fill="#A2B742"/>
<path d="M507.669 276.398L495.479 275.436C494.61 275.369 493.749 275.65 493.086 276.217C492.424 276.784 492.013 277.59 491.944 278.46C491.876 279.329 492.155 280.19 492.721 280.854C493.286 281.518 494.092 281.93 494.961 282L507.151 282.961C508.021 283.029 508.881 282.748 509.544 282.181C510.207 281.614 510.618 280.807 510.686 279.938C510.755 279.069 510.476 278.207 509.91 277.544C509.344 276.88 508.538 276.468 507.669 276.398Z" fill="#A2B742"/>
<path d="M485.83 266.183L473.641 265.222C472.771 265.155 471.911 265.435 471.248 266.002C470.585 266.569 470.174 267.376 470.106 268.245C470.037 269.115 470.316 269.976 470.882 270.64C471.448 271.303 472.254 271.715 473.123 271.786L485.313 272.747C486.182 272.814 487.042 272.532 487.704 271.966C488.366 271.399 488.777 270.592 488.845 269.723C488.914 268.854 488.635 267.994 488.07 267.33C487.505 266.666 486.699 266.254 485.83 266.183Z" fill="#A2B742"/>
<path d="M508.335 267.959L496.145 266.997C495.276 266.931 494.416 267.212 493.753 267.778C493.091 268.345 492.681 269.152 492.612 270.021C492.544 270.89 492.823 271.75 493.388 272.414C493.953 273.078 494.758 273.49 495.627 273.561L507.817 274.522C508.686 274.589 509.546 274.308 510.208 273.741C510.871 273.174 511.281 272.368 511.35 271.499C511.418 270.63 511.139 269.769 510.574 269.105C510.009 268.442 509.204 268.029 508.335 267.959Z" fill="#A2B742"/>
<path d="M288.752 215.625L288.595 217.62L535.448 237.011L535.605 235.017L288.752 215.625Z" fill="white"/>
<path d="M539.174 205.917L539.019 207.907L530.428 207.233L438.895 200.043L439.06 198.051L530.583 205.243L539.174 205.917Z" fill="#3F3D56"/>
<path d="M237.401 184.772C237.401 184.772 224.038 241.193 240.37 241.193C256.703 241.193 295.307 177.348 295.307 177.348L281.944 161.015L257.959 194.315L256.702 177.348L237.401 184.772Z" fill="#A0616A"/>
<path d="M291.746 179.801C298.925 179.801 304.746 173.98 304.746 166.801C304.746 159.621 298.925 153.801 291.746 153.801C284.566 153.801 278.746 159.621 278.746 166.801C278.746 173.98 284.566 179.801 291.746 179.801Z" fill="#A0616A"/>
<path d="M270.488 137.259L261.579 128.35C261.579 128.35 243.762 138.744 242.277 149.137C240.793 159.531 233.369 192.196 233.369 192.196L260.837 194.423L269.746 181.06L270.488 137.259Z" fill="#E6E6E6"/>
</g>
<defs>
<clipPath id="clip0_53:68">
<rect width="904.362" height="586.406" fill="white" transform="translate(2.89575 12)"/>
</clipPath>
</defs>
</svg>
