<svg width="1222" height="732" viewBox="0 0 1222 732" fill="none" xmlns="http://www.w3.org/2000/svg">
<g clip-path="url(#clip0_49_4)">
<path d="M82.2376 551.602C76.435 551.602 70.6204 551.814 64.942 552.242L64.1156 552.304C26.4508 555.253 -1.09934 572.363 0.0337135 592.105L0.25276 595.674C0.39721 597.931 0.551116 600.357 0.677797 603.048C0.74641 604.376 2.79123 605.394 5.3356 605.394H931.8C997.12 605.043 1062.2 604.601 1125.23 604.08C1137.05 604.102 1148.87 603.56 1160.62 602.456C1178.14 600.62 1190.29 596.98 1197.79 591.328H1197.79C1207.12 584.32 1207.41 575.495 1206.85 565.524C1205.7 545.391 1204.56 524.241 1203.42 503.155C1202.42 484.571 1201.42 466.036 1200.42 448.292C1199.8 437.762 1198.43 428.467 1187.84 421.363C1176.37 413.68 1155.44 409.786 1125.64 409.786C1125.28 409.786 1124.92 409.786 1124.55 409.787C1031.16 410.081 938.624 438.526 894.289 480.568C889.183 485.409 884.426 490.592 879.825 495.605C873.027 503.01 865.999 510.667 857.611 517.514C853.07 521.271 848.159 524.662 842.937 527.646C842.577 527.866 842.165 528.102 841.729 528.326C840.732 528.901 839.691 529.456 838.675 529.95C832.727 532.993 826.46 535.517 819.961 537.487L819.305 537.682C818.811 537.838 818.276 537.994 817.741 538.137C813.988 539.204 810.089 540.127 806.183 540.873C789.283 544.173 770.065 544.964 749.067 543.222C729.784 541.58 710.749 538.144 692.278 532.971C672.833 527.528 654.633 520.741 637.032 514.179C629.3 511.295 621.304 508.314 613.318 505.49C611.817 504.958 610.34 504.438 608.841 503.919C599.088 500.552 590.244 497.771 581.807 495.417C560.905 489.563 539.267 486.013 517.384 484.848C494.157 483.722 473.688 485.846 456.561 491.148C451.839 492.604 447.241 494.359 442.803 496.398C422.517 505.73 410.01 519.501 397.917 532.82C382.873 549.386 367.317 566.517 336.6 575.398C301.155 585.655 249.417 581.394 212.813 573.983C201.305 571.653 189.811 568.973 178.694 566.379C174.205 565.332 169.712 564.291 165.216 563.258C156.381 561.238 149.15 559.69 142.461 558.383L140.345 557.966C139.168 557.74 137.99 557.513 136.791 557.297C128.845 555.82 121.446 554.657 114.16 553.743L112.436 553.52C108.98 553.116 105.749 552.781 102.578 552.499L101.313 552.387C95.1028 551.864 88.6761 551.602 82.2376 551.602Z" fill="#F2F2F2"/>
<path d="M1040.26 573.635C1066.32 552.827 1105.1 542.365 1137.63 554.032C1104.26 570.44 1078.52 596.772 1064.97 628.369C1059.79 640.572 1055.47 654.622 1042.73 661.154C1034.81 665.22 1024.95 665.418 1016.06 663.456C1007.18 661.493 999.031 657.559 990.998 653.665L988.712 653.619C998.973 623.894 1014.19 594.443 1040.26 573.635Z" fill="#E6E6E6"/>
<path d="M1137.44 554.664C1108.64 557.962 1081.74 569.215 1060.56 586.826C1055.93 590.545 1051.98 594.889 1048.87 599.696C1046.02 604.465 1044.66 609.825 1044.93 615.219C1045.07 620.253 1045.87 625.387 1044.63 630.363C1043.95 632.902 1042.67 635.285 1040.88 637.356C1039.09 639.427 1036.82 641.139 1034.23 642.38C1027.87 645.621 1020.57 646.642 1013.39 647.422C1005.42 648.287 997.125 649.074 990.225 653.034C989.389 653.514 988.598 652.337 989.432 651.858C1001.44 644.968 1016.62 647.475 1029.53 642.877C1035.55 640.732 1040.88 636.965 1042.77 631.271C1044.42 626.292 1043.6 620.997 1043.41 615.902C1043.05 610.643 1044.16 605.389 1046.62 600.596C1049.45 595.664 1053.19 591.193 1057.71 587.375C1067.72 578.636 1079.22 571.345 1091.78 565.77C1106.08 559.336 1121.52 555.117 1137.43 553.294C1138.41 553.182 1138.42 554.553 1137.44 554.664H1137.44Z" fill="white"/>
<path d="M1067 580.8C1064.15 577.252 1062.81 572.921 1063.23 568.58C1063.65 564.24 1065.8 560.173 1069.29 557.105C1070 556.487 1071.12 557.433 1070.41 558.053C1067.15 560.904 1065.15 564.693 1064.77 568.735C1064.39 572.778 1065.65 576.808 1068.33 580.097C1068.91 580.813 1067.58 581.511 1067 580.8V580.8Z" fill="white"/>
<path d="M1044.48 612.675C1054.38 614.229 1064.57 612.42 1073.04 607.611C1073.87 607.134 1074.66 608.31 1073.83 608.787C1065.01 613.777 1054.4 615.64 1044.1 614.004C1043.12 613.847 1043.5 612.519 1044.48 612.675Z" fill="white"/>
<path d="M1106.21 561.149C1106.99 562.726 1108.2 564.106 1109.73 565.165C1111.26 566.225 1113.07 566.931 1114.99 567.22C1115.97 567.365 1115.58 568.692 1114.61 568.548C1112.49 568.22 1110.5 567.438 1108.8 566.271C1107.11 565.104 1105.76 563.586 1104.88 561.851C1104.78 561.694 1104.75 561.509 1104.8 561.335C1104.85 561.16 1104.98 561.009 1105.15 560.912C1105.32 560.82 1105.53 560.793 1105.73 560.838C1105.93 560.882 1106.1 560.994 1106.21 561.149Z" fill="white"/>
<path d="M1173.44 654.378C1172.82 654.303 1172.21 654.227 1171.58 654.16C1163.28 653.185 1154.91 652.808 1146.54 653.034C1145.89 653.042 1145.24 653.059 1144.59 653.084C1124.44 653.818 1104.62 657.86 1086.13 665.003C1078.78 667.852 1071.68 671.192 1064.9 674.994C1055.54 680.246 1045.85 686.601 1035.39 688.743C1034.3 688.977 1033.19 689.151 1032.08 689.265L988.826 656.092C988.771 655.973 988.706 655.862 988.65 655.743L986.855 654.489C987.189 654.271 987.541 654.051 987.876 653.834C988.069 653.707 988.272 653.587 988.465 653.46C988.597 653.378 988.729 653.295 988.843 653.214C988.887 653.187 988.931 653.16 988.966 653.141C989.08 653.06 989.196 652.995 989.301 652.923C991.264 651.692 993.241 650.47 995.231 649.259C995.24 649.25 995.24 649.25 995.258 649.248C1010.32 639.889 1026.58 632.145 1043.71 626.18C1044.22 626.008 1044.74 625.827 1045.28 625.67C1052.99 623.13 1060.92 621.153 1069 619.758C1073.42 619.007 1077.88 618.455 1082.37 618.103C1093.97 617.215 1105.65 617.948 1116.99 620.276C1139.6 624.918 1160.27 635.913 1172.52 653.06C1172.83 653.499 1173.14 653.93 1173.44 654.378Z" fill="#E6E6E6"/>
<path d="M1172.87 654.79C1147.63 642.06 1118.5 636.699 1089.62 639.468C1083.39 639.966 1077.29 641.331 1071.54 643.512C1066.02 645.797 1061.29 649.35 1057.84 653.803C1054.53 657.897 1051.68 662.424 1047.31 665.734C1045.04 667.399 1042.4 668.621 1039.56 669.319C1036.72 670.017 1033.75 670.176 1030.84 669.785C1023.55 668.978 1017.03 665.9 1010.77 662.695C1003.82 659.135 996.66 655.34 988.46 654.823C987.466 654.76 987.634 653.398 988.626 653.46C1002.89 654.361 1013.32 664.463 1026.75 667.675C1033.01 669.174 1039.83 669.008 1045.21 665.468C1049.91 662.372 1052.85 657.706 1056.16 653.535C1059.45 649.148 1063.91 645.541 1069.13 643.031C1074.74 640.597 1080.77 639.027 1086.97 638.386C1100.9 636.746 1115.04 637.056 1128.86 639.306C1144.65 641.795 1159.85 646.66 1173.79 653.688C1174.65 654.124 1173.73 655.222 1172.87 654.79V654.79Z" fill="white"/>
<path d="M1098.86 638.092C1098.99 633.737 1100.87 629.566 1104.15 626.324C1107.44 623.082 1111.92 620.979 1116.79 620.392C1117.78 620.276 1118.03 621.628 1117.04 621.744C1112.5 622.284 1108.33 624.243 1105.28 627.267C1102.23 630.292 1100.49 634.184 1100.4 638.239C1100.38 639.12 1098.84 638.968 1098.86 638.092V638.092Z" fill="white"/>
<path d="M1059.21 651.531C1066.06 658.051 1075.43 662.044 1085.45 662.716C1086.45 662.782 1086.28 664.144 1085.29 664.078C1074.86 663.362 1065.11 659.188 1058.01 652.39C1057.33 651.741 1058.54 650.886 1059.21 651.531H1059.21Z" fill="white"/>
<path d="M1143.52 643.31C1143.07 644.985 1143.1 646.733 1143.61 648.396C1144.11 650.059 1145.07 651.586 1146.4 652.838C1147.09 653.479 1145.88 654.333 1145.2 653.697C1143.73 652.307 1142.67 650.62 1142.11 648.784C1141.55 646.948 1141.51 645.018 1141.98 643.163C1142.01 642.984 1142.12 642.823 1142.27 642.71C1142.43 642.597 1142.63 642.542 1142.84 642.555C1143.04 642.576 1143.23 642.667 1143.35 642.808C1143.48 642.949 1143.54 643.13 1143.52 643.31Z" fill="white"/>
<path d="M357.825 594.33C379.171 565.651 417.357 544.906 455.808 549.37C425.278 575.14 406.022 609.645 401.448 646.78C399.742 661.107 399.529 677.199 387.96 687.325C380.761 693.625 370.279 696.267 360.16 696.358C350.04 696.448 340.093 694.248 330.278 692.062L327.82 692.576C329.458 658.256 336.479 623.008 357.825 594.33Z" fill="#E6E6E6"/>
<path d="M455.812 550.091C426.039 560.716 400.801 579.381 383.685 603.434C379.897 608.554 377.043 614.171 375.229 620.078C373.672 625.883 373.899 631.952 375.885 637.653C377.617 643.002 380.087 648.296 380.321 653.924C380.392 656.807 379.774 659.67 378.508 662.327C377.243 664.983 375.357 667.373 372.976 669.338C367.186 674.373 359.698 677.265 352.266 679.867C344.013 682.757 335.39 685.642 329.254 691.577C328.511 692.297 327.295 691.233 328.037 690.515C338.711 680.188 355.744 679.127 368.104 671.028C373.871 667.25 378.388 661.908 378.617 655.354C378.817 649.622 376.275 644.161 374.469 638.759C372.439 633.222 371.971 627.33 373.105 621.596C374.573 615.626 377.178 609.921 380.807 604.725C388.767 592.911 398.775 582.28 410.463 573.22C423.738 562.815 438.925 554.498 455.367 548.629C456.384 548.266 456.823 549.73 455.812 550.091L455.812 550.091Z" fill="white"/>
<path d="M388.682 595.401C384.515 592.31 381.725 588.007 380.81 583.262C379.895 578.517 380.913 573.638 383.684 569.496C384.248 568.66 385.742 569.397 385.177 570.234C382.589 574.086 381.64 578.631 382.503 583.049C383.366 587.466 385.982 591.465 389.881 594.323C390.728 594.945 389.523 596.02 388.682 595.401Z" fill="white"/>
<path d="M374.604 635.043C385.679 634.266 396.017 629.819 403.555 622.59C404.301 621.873 405.518 622.936 404.773 623.652C396.912 631.162 386.144 635.77 374.616 636.557C373.518 636.632 373.511 635.117 374.604 635.043H374.604Z" fill="white"/>
<path d="M424.442 564.723C425.773 566.217 427.501 567.395 429.473 568.15C431.444 568.906 433.597 569.216 435.737 569.053C436.834 568.966 436.839 570.481 435.749 570.567C433.384 570.737 431.007 570.392 428.827 569.562C426.647 568.731 424.73 567.44 423.243 565.802C423.088 565.658 423.001 565.467 422.999 565.268C422.997 565.069 423.081 564.877 423.234 564.731C423.393 564.589 423.61 564.508 423.836 564.507C424.062 564.506 424.28 564.583 424.442 564.723H424.442Z" fill="white"/>
<path d="M525.631 647.867C524.948 647.939 524.264 648.01 523.574 648.092C514.392 649.094 505.318 650.754 496.439 653.058C495.75 653.226 495.054 653.406 494.371 653.591C473.049 659.342 453.117 668.55 435.589 680.746C428.619 685.604 422.077 690.926 416.019 696.663C407.653 704.588 399.294 713.77 388.77 718.641C387.679 719.16 386.552 719.618 385.397 720.014L328.719 695.193C328.622 695.08 328.518 694.977 328.42 694.863L326.106 693.964C326.395 693.648 326.703 693.327 326.992 693.012C327.159 692.828 327.338 692.65 327.505 692.467C327.62 692.346 327.736 692.226 327.832 692.111C327.871 692.071 327.909 692.031 327.941 692.002C328.037 691.887 328.141 691.79 328.23 691.687C329.944 689.886 331.674 688.092 333.422 686.306C333.428 686.295 333.428 686.295 333.447 686.289C346.804 672.71 361.558 660 378.021 649.677C378.517 649.366 379.018 649.044 379.539 648.745C386.989 644.129 394.852 640.059 403.051 636.577C407.547 634.684 412.148 632.993 416.837 631.511C428.962 627.703 441.687 625.609 454.546 625.304C480.18 624.699 505.748 631.363 524.232 646.684C524.704 647.077 525.165 647.463 525.631 647.867Z" fill="#E6E6E6"/>
<path d="M525.148 648.448C494.153 641.054 461.315 642.498 431.3 652.575C424.795 654.643 418.698 657.606 413.235 661.355C408.046 665.16 404.102 670.126 401.813 675.738C399.559 680.932 397.934 686.476 394.294 691.094C392.392 693.434 389.952 695.391 387.136 696.837C384.32 698.283 381.19 699.185 377.953 699.485C369.907 700.417 361.964 698.733 354.26 696.847C345.707 694.753 336.86 692.458 327.927 693.925C326.845 694.103 326.597 692.605 327.677 692.428C343.219 689.875 357.54 698.111 372.914 698.236C380.087 698.295 387.324 696.439 391.962 691.328C396.018 686.858 397.7 681.142 399.93 675.865C402.073 670.362 405.704 665.407 410.507 661.434C415.737 657.45 421.695 654.284 428.125 652.071C442.51 646.884 457.727 643.732 473.217 642.732C490.889 641.503 508.668 642.962 525.785 647.044C526.845 647.297 526.2 648.7 525.148 648.448Z" fill="white"/>
<path d="M440.749 648.826C439.524 644.136 440.221 639.213 442.716 634.936C445.21 630.659 449.34 627.307 454.368 625.478C455.386 625.111 456.078 626.496 455.058 626.863C450.373 628.558 446.526 631.682 444.212 635.668C441.899 639.655 441.27 644.244 442.44 648.605C442.693 649.553 441.001 649.769 440.749 648.826H440.749Z" fill="white"/>
<path d="M402.564 672.971C411.936 678.256 423.212 680.219 434.145 678.467C435.228 678.292 435.476 679.79 434.395 679.964C423.014 681.769 411.284 679.705 401.545 674.186C400.617 673.66 401.641 672.447 402.564 672.971V672.971Z" fill="white"/>
<path d="M490.154 643.402C490.202 645.304 490.781 647.167 491.842 648.821C492.902 650.476 494.41 651.872 496.23 652.883C497.165 653.399 496.139 654.611 495.211 654.098C493.206 652.973 491.543 651.43 490.367 649.604C489.191 647.778 488.537 645.725 488.464 643.623C488.438 643.426 488.498 643.227 488.632 643.067C488.766 642.908 488.963 642.799 489.184 642.764C489.408 642.736 489.636 642.787 489.817 642.906C489.999 643.026 490.12 643.204 490.154 643.402V643.402Z" fill="white"/>
<path d="M1034.88 661.97L1018.94 661.968L1011.36 605.931L1034.88 605.932L1034.88 661.97Z" fill="#9E616A"/>
<path d="M959.477 661.97L943.541 661.968L935.959 605.931L959.481 605.932L959.477 661.97Z" fill="#9E616A"/>
<path d="M960.039 677.125L911.031 677.123V676.558C911.031 671.947 913.041 667.524 916.618 664.263C920.195 661.002 925.047 659.17 930.106 659.17H930.107L939.059 652.979L955.762 659.171L960.04 659.171L960.039 677.125Z" fill="#2F2E41"/>
<path d="M1037.48 677.125L988.473 677.123V676.558C988.473 671.947 990.483 667.524 994.061 664.263C997.638 661.002 1002.49 659.17 1007.55 659.17H1007.55L1016.5 652.979L1033.2 659.171L1037.48 659.171L1037.48 677.125Z" fill="#2F2E41"/>
<path d="M943.845 330.323L919.624 464.767L926.216 484.802L917.566 498.991L930.268 623.603L925.112 633.951L939.518 642.05H968.833L970.388 529.238L977.63 512.674V503.546L992.371 434.756L995.085 531.092L999.373 547.681L995.771 559.493L1000.48 567.768L1012.98 644.508H1045.85L1043.31 626.654C1046.17 625.333 1048.47 623.182 1049.85 620.538C1051.22 617.895 1051.59 614.91 1050.91 612.053L1049.02 604.228L1053.31 581.09L1061.12 452.007L1058.92 347.853L1020.47 321.048L943.845 330.323Z" fill="#2F2E41"/>
<path d="M999.372 157.68C1016.24 157.68 1029.91 145.216 1029.91 129.84C1029.91 114.465 1016.24 102.001 999.372 102.001C982.506 102.001 968.833 114.465 968.833 129.84C968.833 145.216 982.506 157.68 999.372 157.68Z" fill="#9E616A"/>
<path d="M932.646 383.674C933.975 382.422 934.987 380.92 935.61 379.273C936.234 377.627 936.453 375.875 936.254 374.143C936.054 372.41 935.44 370.738 934.455 369.246C933.47 367.753 932.138 366.475 930.553 365.502L942.429 324.562L919.549 331.578L911.779 369.379C910.163 371.915 909.623 374.904 910.262 377.778C910.901 380.653 912.675 383.214 915.247 384.976C917.819 386.738 921.011 387.579 924.218 387.339C927.425 387.099 930.424 385.795 932.646 383.674H932.646Z" fill="#9E616A"/>
<path d="M945.144 187.116L940.233 186.187L936.045 188.301C936.045 188.301 924.345 202.522 924.345 215.557C924.345 228.592 910.045 354.205 910.045 354.205L936.045 364.87L956.844 266.513L945.144 187.116Z" fill="#E6E6E6"/>
<path d="M1026.12 109.429C1026.12 109.429 1034.1 95.5091 1016.53 94.2437C1016.53 94.2437 1001.55 81.8554 986.281 91.9789C986.281 91.9789 977.951 91.9789 973.397 100.571C973.397 100.571 966.846 98.3061 965.407 104.367C965.407 104.367 960.613 117.022 965.407 128.411C970.2 139.8 971.792 141.065 971.792 141.065C971.792 141.065 963.916 117.187 983.088 115.922C1002.26 114.656 1023.71 103.734 1025.31 117.654C1026.91 131.574 1029.31 135.004 1029.31 135.004C1029.31 135.004 1044.49 115.123 1026.12 109.429Z" fill="#2F2E41"/>
<path d="M1137.68 498.991C1135.37 498.994 1133.15 498.22 1131.43 496.818L1039.01 421.82C1037.14 420.306 1036.02 418.179 1035.87 415.908C1035.73 413.636 1036.58 411.405 1038.23 409.704L1097.44 349.072C1099.1 347.374 1101.44 346.346 1103.93 346.214C1106.42 346.082 1108.87 346.856 1110.73 348.367L1203.16 423.366C1205.02 424.879 1206.15 427.006 1206.3 429.278C1206.44 431.55 1205.59 433.781 1203.93 435.481L1144.72 496.114C1143.9 496.958 1142.91 497.646 1141.79 498.137C1140.68 498.628 1139.47 498.914 1138.24 498.976C1138.05 498.986 1137.86 498.991 1137.68 498.991Z" fill="white"/>
<path d="M1137.68 499.542C1135.22 499.546 1132.86 498.722 1131.03 497.231L1038.6 422.233C1036.62 420.621 1035.42 418.357 1035.27 415.94C1035.11 413.522 1036.02 411.148 1037.78 409.337L1096.99 348.705C1098.76 346.898 1101.24 345.805 1103.89 345.664C1106.54 345.523 1109.15 346.347 1111.14 347.955L1203.56 422.954C1205.55 424.564 1206.75 426.828 1206.9 429.246C1207.05 431.664 1206.15 434.039 1204.38 435.849L1145.17 496.481C1144.3 497.38 1143.24 498.111 1142.06 498.634C1140.87 499.157 1139.59 499.461 1138.27 499.527C1138.07 499.537 1137.87 499.542 1137.68 499.542ZM1104.48 347.853C1103.41 347.851 1102.34 348.057 1101.36 348.456C1100.39 348.856 1099.51 349.441 1098.8 350.172L1039.59 410.804C1038.25 412.177 1037.57 413.978 1037.68 415.812C1037.8 417.646 1038.71 419.362 1040.21 420.585L1132.64 495.583C1133.38 496.188 1134.25 496.653 1135.19 496.952C1136.14 497.251 1137.13 497.377 1138.13 497.324C1139.13 497.272 1140.1 497.04 1141 496.644C1141.9 496.247 1142.7 495.694 1143.37 495.014L1202.57 434.382C1203.91 433.009 1204.6 431.208 1204.48 429.374C1204.37 427.54 1203.46 425.823 1201.95 424.602L1109.53 349.603C1108.14 348.473 1106.34 347.85 1104.48 347.853H1104.48Z" fill="#3F3D56"/>
<path d="M1171.19 441.569C1170.19 441.57 1169.23 441.236 1168.49 440.63L1095.94 381.759C1095.54 381.436 1095.21 381.043 1094.97 380.603C1094.74 380.164 1094.6 379.687 1094.57 379.199C1094.54 378.711 1094.61 378.222 1094.79 377.761C1094.96 377.299 1095.24 376.873 1095.59 376.508C1095.95 376.143 1096.38 375.846 1096.86 375.634C1097.35 375.421 1097.87 375.297 1098.41 375.27C1098.94 375.242 1099.48 375.311 1099.98 375.473C1100.49 375.635 1100.96 375.886 1101.35 376.212L1173.9 435.083C1174.52 435.583 1174.96 436.243 1175.15 436.975C1175.35 437.706 1175.3 438.475 1175 439.178C1174.71 439.882 1174.19 440.487 1173.51 440.914C1172.83 441.341 1172.02 441.569 1171.19 441.569Z" fill="#B5D438"/>
<path d="M1157.35 455.739C1156.36 455.741 1155.39 455.407 1154.65 454.801L1082.1 395.93C1081.7 395.606 1081.37 395.213 1081.14 394.774C1080.91 394.335 1080.77 393.858 1080.74 393.372C1080.71 392.885 1080.78 392.397 1080.96 391.937C1081.14 391.476 1081.41 391.052 1081.77 390.687C1082.12 390.323 1082.55 390.027 1083.03 389.814C1083.51 389.602 1084.04 389.478 1084.57 389.45C1085.11 389.421 1085.64 389.489 1086.15 389.65C1086.65 389.81 1087.12 390.059 1087.52 390.383L1160.07 449.254C1160.68 449.755 1161.12 450.415 1161.31 451.146C1161.51 451.877 1161.46 452.646 1161.16 453.349C1160.87 454.053 1160.35 454.658 1159.67 455.085C1158.99 455.512 1158.18 455.74 1157.35 455.739H1157.35Z" fill="#B5D438"/>
<path d="M1143.52 469.912C1142.52 469.913 1141.55 469.579 1140.81 468.973L1068.26 410.103C1067.86 409.778 1067.53 409.386 1067.3 408.946C1067.07 408.507 1066.93 408.031 1066.9 407.543C1066.87 407.056 1066.94 406.568 1067.12 406.107C1067.29 405.646 1067.57 405.221 1067.92 404.857C1068.28 404.492 1068.71 404.195 1069.19 403.983C1069.67 403.77 1070.2 403.646 1070.73 403.618C1071.27 403.59 1071.8 403.659 1072.31 403.819C1072.81 403.98 1073.28 404.23 1073.68 404.555L1146.23 463.426C1146.84 463.926 1147.28 464.586 1147.48 465.318C1147.67 466.049 1147.62 466.817 1147.33 467.521C1147.03 468.225 1146.51 468.83 1145.83 469.257C1145.15 469.684 1144.34 469.913 1143.52 469.912H1143.52Z" fill="#B5D438"/>
<path d="M1060.55 386.091C1059.62 384.569 1059.07 382.88 1058.93 381.143C1058.79 379.405 1059.07 377.661 1059.75 376.034C1060.44 374.406 1061.5 372.935 1062.87 371.723C1064.25 370.512 1065.9 369.589 1067.7 369.021L1067.78 326.674L1087.91 338.82L1084.75 377.171C1085.6 380.001 1085.27 383.015 1083.84 385.643C1082.42 388.271 1079.98 390.329 1077 391.429C1074.01 392.528 1070.69 392.592 1067.66 391.608C1064.63 390.624 1062.1 388.661 1060.55 386.091H1060.55Z" fill="#9E616A"/>
<path d="M1062.41 198.721L1071.4 190.819L1078.01 195.166C1078.01 195.166 1084.51 202.276 1089.71 223.606C1094.91 244.937 1089.71 362.254 1089.71 362.254L1061.11 358.699L1065.01 297.078L1053.31 244.937L1062.41 198.721Z" fill="#E6E6E6"/>
<path d="M1075.69 192.746L1045.39 179.553L1024.82 162.16L987.31 161.904L975.209 176.244L943.264 186.136L948.588 286.549L944.958 294.27C944.958 294.27 947.487 296.353 948.643 297.518C949.798 298.683 947.046 308.434 947.046 308.434L945.494 319.043L949.798 321.847L944.203 327.872L942.814 337.369C942.814 337.369 1040.48 315.239 1058.94 351.898C1059.91 353.835 1057.51 334.906 1057.51 334.906L1055.11 321.048L1057.49 308.61L1061.12 305.301L1055.03 299.751L1058.94 273.417L1075.69 192.746Z" fill="#3F3D56"/>
<path d="M516.833 373.344C518.057 372.234 518.999 370.893 519.593 369.415C520.187 367.937 520.418 366.359 520.27 364.79C520.122 363.222 519.599 361.703 518.737 360.339C517.875 358.975 516.696 357.8 515.282 356.897L534.561 271.844L513.761 277.825L498.251 360.107C496.743 362.373 496.2 365.064 496.724 367.67C497.247 370.277 498.802 372.618 501.092 374.249C503.383 375.881 506.25 376.69 509.151 376.523C512.052 376.357 514.786 375.225 516.833 373.344Z" fill="#FFB6B6"/>
<path d="M561.394 145.995L548.51 137.13C548.51 137.13 537.144 136.396 535.131 155.081C533.118 173.765 520.515 245.476 520.515 245.476L500.799 328.715L528.09 334.176L549.207 244.346L570.345 182.372L561.394 145.995Z" fill="#E6E6E6"/>
<path d="M551.578 300.018L489.776 256.212C488.813 255.528 488.187 254.524 488.036 253.42C487.884 252.316 488.219 251.203 488.967 250.324L531.017 201.025C531.768 200.148 532.869 199.577 534.08 199.439C535.291 199.301 536.513 199.606 537.477 200.288L599.28 244.094C600.242 244.778 600.868 245.782 601.02 246.886C601.171 247.99 600.836 249.104 600.088 249.983L558.038 299.281C557.288 300.159 556.186 300.729 554.975 300.867C553.764 301.005 552.543 300.7 551.578 300.018Z" fill="#3F3D56"/>
<path d="M551.239 295.485L494.679 255.395C493.824 254.788 493.268 253.896 493.134 252.916C492.999 251.936 493.297 250.947 493.961 250.167L532.081 205.475C532.747 204.696 533.725 204.19 534.8 204.067C535.876 203.945 536.96 204.216 537.817 204.821L594.377 244.911C595.232 245.518 595.787 246.41 595.922 247.39C596.056 248.37 595.759 249.359 595.095 250.139L556.974 294.831C556.308 295.61 555.33 296.116 554.255 296.239C553.18 296.362 552.095 296.091 551.239 295.485Z" fill="white"/>
<path d="M502.094 254.258C501.88 254.106 501.741 253.884 501.708 253.639C501.674 253.394 501.748 253.146 501.914 252.951L521.145 230.406C521.311 230.211 521.556 230.084 521.825 230.053C521.958 230.038 522.093 230.047 522.222 230.079C522.352 230.112 522.473 230.167 522.579 230.242C522.685 230.317 522.773 230.411 522.84 230.517C522.906 230.623 522.949 230.741 522.965 230.862C522.982 230.983 522.972 231.106 522.937 231.224C522.901 231.342 522.84 231.453 522.758 231.549L503.528 254.095C503.361 254.29 503.117 254.416 502.848 254.447C502.579 254.477 502.308 254.41 502.094 254.258Z" fill="#E4E4E4"/>
<path d="M505.281 256.517C505.067 256.366 504.929 256.143 504.895 255.898C504.861 255.653 504.936 255.406 505.102 255.21L524.332 232.665C524.499 232.47 524.743 232.343 525.012 232.312C525.281 232.282 525.552 232.35 525.766 232.501C525.98 232.653 526.119 232.876 526.153 233.121C526.186 233.366 526.112 233.613 525.945 233.808L506.715 256.354C506.548 256.549 506.304 256.675 506.035 256.706C505.766 256.737 505.495 256.669 505.281 256.517Z" fill="#E4E4E4"/>
<path d="M519.363 246.004C519.149 245.852 519.01 245.629 518.977 245.384C518.943 245.139 519.017 244.892 519.183 244.697L527.519 234.924C527.602 234.827 527.704 234.746 527.821 234.686C527.937 234.625 528.066 234.586 528.199 234.57C528.333 234.555 528.468 234.564 528.597 234.596C528.727 234.629 528.848 234.684 528.954 234.759C529.06 234.834 529.149 234.928 529.215 235.034C529.282 235.141 529.325 235.258 529.341 235.38C529.358 235.501 529.348 235.624 529.312 235.743C529.276 235.861 529.215 235.971 529.133 236.068L520.797 245.84C520.63 246.035 520.386 246.162 520.117 246.192C519.848 246.223 519.577 246.155 519.363 246.004Z" fill="#E4E4E4"/>
<path d="M523.66 265.182C523.447 265.03 523.308 264.808 523.274 264.563C523.24 264.318 523.315 264.07 523.481 263.875L553.84 228.283C553.922 228.186 554.025 228.106 554.141 228.045C554.258 227.985 554.387 227.946 554.52 227.931C554.653 227.915 554.788 227.924 554.917 227.957C555.047 227.989 555.168 228.044 555.274 228.119C555.38 228.195 555.468 228.288 555.535 228.394C555.601 228.501 555.644 228.618 555.66 228.739C555.677 228.86 555.667 228.984 555.632 229.102C555.596 229.219 555.535 229.33 555.453 229.426L525.094 265.019C524.928 265.213 524.683 265.34 524.414 265.371C524.145 265.401 523.874 265.334 523.66 265.182Z" fill="#E4E4E4"/>
<path d="M526.848 267.441C526.634 267.29 526.495 267.067 526.461 266.822C526.428 266.577 526.502 266.329 526.668 266.134L557.027 230.542C557.11 230.445 557.212 230.365 557.329 230.304C557.445 230.244 557.574 230.205 557.707 230.19C557.84 230.174 557.975 230.183 558.105 230.216C558.234 230.248 558.355 230.303 558.461 230.378C558.567 230.454 558.656 230.547 558.722 230.653C558.788 230.76 558.831 230.877 558.848 230.998C558.864 231.12 558.855 231.243 558.819 231.361C558.784 231.479 558.723 231.589 558.64 231.686L528.281 267.278C528.115 267.473 527.87 267.599 527.602 267.63C527.333 267.661 527.062 267.593 526.848 267.441Z" fill="#E4E4E4"/>
<path d="M534.083 272.57C533.869 272.418 533.73 272.195 533.696 271.95C533.663 271.705 533.737 271.458 533.903 271.263L564.262 235.67C564.345 235.574 564.447 235.493 564.564 235.432C564.68 235.372 564.809 235.333 564.942 235.318C565.075 235.303 565.21 235.312 565.34 235.344C565.469 235.376 565.59 235.432 565.696 235.507C565.802 235.582 565.891 235.675 565.957 235.782C566.023 235.888 566.066 236.005 566.083 236.126C566.099 236.248 566.09 236.371 566.054 236.489C566.019 236.607 565.958 236.717 565.876 236.814L535.516 272.406C535.35 272.601 535.105 272.727 534.837 272.758C534.568 272.789 534.297 272.721 534.083 272.57Z" fill="#E4E4E4"/>
<path d="M537.27 274.829C537.056 274.677 536.917 274.454 536.884 274.209C536.85 273.964 536.924 273.717 537.09 273.522L567.45 237.929C567.532 237.833 567.634 237.752 567.751 237.692C567.868 237.631 567.996 237.592 568.129 237.577C568.262 237.562 568.398 237.571 568.527 237.603C568.656 237.635 568.777 237.691 568.883 237.766C568.989 237.841 569.078 237.934 569.144 238.041C569.211 238.147 569.253 238.264 569.27 238.385C569.287 238.507 569.277 238.63 569.241 238.748C569.206 238.866 569.145 238.976 569.063 239.073L538.704 274.665C538.537 274.86 538.293 274.987 538.024 275.017C537.755 275.048 537.484 274.98 537.27 274.829Z" fill="#E4E4E4"/>
<path d="M544.505 279.957C544.291 279.805 544.152 279.582 544.119 279.337C544.085 279.092 544.159 278.845 544.325 278.65L574.684 243.058C574.767 242.961 574.869 242.88 574.986 242.82C575.102 242.759 575.231 242.72 575.364 242.705C575.497 242.69 575.632 242.699 575.762 242.731C575.891 242.764 576.012 242.819 576.118 242.894C576.224 242.969 576.313 243.063 576.379 243.169C576.445 243.275 576.488 243.392 576.505 243.514C576.522 243.635 576.512 243.758 576.476 243.876C576.441 243.994 576.38 244.105 576.298 244.201L545.939 279.793C545.772 279.988 545.527 280.115 545.259 280.145C544.99 280.176 544.719 280.108 544.505 279.957Z" fill="#E4E4E4"/>
<path d="M547.692 282.216C547.478 282.064 547.339 281.841 547.306 281.596C547.272 281.351 547.347 281.104 547.513 280.909L577.872 245.317C578.038 245.123 578.283 244.997 578.551 244.966C578.819 244.936 579.09 245.004 579.303 245.156C579.517 245.307 579.656 245.529 579.69 245.774C579.724 246.018 579.65 246.265 579.485 246.46L549.126 282.052C548.959 282.247 548.715 282.374 548.446 282.404C548.177 282.435 547.906 282.367 547.692 282.216Z" fill="#E4E4E4"/>
<path d="M496.952 323.551C497.184 323.551 497.371 323.38 497.371 323.169C497.371 322.957 497.184 322.786 496.952 322.786C496.72 322.786 496.532 322.957 496.532 323.169C496.532 323.38 496.72 323.551 496.952 323.551Z" fill="white"/>
<path d="M558.082 60.0424C556.607 67.2694 554.187 74.3092 550.875 81.0116C531.91 117.585 585.919 105.664 605.221 105.664C626.324 105.664 646.515 115.78 643.431 70.832C642.114 51.6323 626.324 36 605.221 36C587.195 36 561.851 43.3036 558.082 60.0424Z" fill="#2F2E41"/>
<path d="M624.892 596.443H606.912L598.355 533.224H624.892V596.443Z" fill="#FFB6B6"/>
<path d="M634.381 624.842H621.487L619.186 613.744L613.291 624.842H579.093C577.454 624.842 575.858 624.364 574.537 623.479C573.217 622.593 572.241 621.346 571.754 619.919C571.266 618.493 571.291 616.961 571.826 615.549C572.36 614.136 573.376 612.916 574.725 612.067L602.035 594.874V583.655L630.759 585.218L634.381 624.842Z" fill="#2F2E41"/>
<path d="M731.71 575.759L717.282 585.54L669.034 539.464L690.328 525.029L731.71 575.759Z" fill="#FFB6B6"/>
<path d="M757.915 593.385L747.568 600.399L738.457 592.746L740.991 604.857L713.548 623.459C712.233 624.351 710.639 624.836 709 624.844C707.361 624.852 705.762 624.381 704.437 623.502C703.111 622.623 702.129 621.38 701.633 619.956C701.138 618.531 701.154 617 701.681 615.585L712.341 586.933L704.997 577.93L729.071 563.559L757.915 593.385Z" fill="#2F2E41"/>
<path d="M566.005 305.49L651.355 293.371L634.382 246.825H566.005V305.49Z" fill="#FFB6B6"/>
<path d="M645.825 270.268C645.825 270.268 679.939 297.135 664.199 373.727L644.983 448.773L697.337 531.63L670.716 544.866L606.199 463.125L576.677 399.997L561.061 289.36L645.825 270.268Z" fill="#2F2E41"/>
<path d="M592.949 417.987L590.896 446.955L596.903 532.733L626.723 542.093L632.371 454.204L592.949 417.987Z" fill="#2F2E41"/>
<path d="M583.781 115.305L616.773 116.478L629.921 136.374L659.92 141.713L642.012 224.301L645.305 271.31L615.434 271.144C593.907 271.024 573.088 278.154 556.972 291.165L557.866 230.144L545.017 184.593L547.905 136.83L572.038 134.08L583.781 115.305Z" fill="#E6E6E6"/>
<path d="M602.059 105.655C619.208 105.655 633.109 92.9829 633.109 77.3505C633.109 61.7181 619.208 49.0455 602.059 49.0455C584.91 49.0455 571.009 61.7181 571.009 77.3505C571.009 92.9829 584.91 105.655 602.059 105.655Z" fill="#FFB6B6"/>
<path d="M580.972 48.4975C586.413 45.4738 592.646 43.8381 599.017 43.7615C605.389 43.6849 611.667 45.1703 617.193 48.0622C622.72 50.9541 627.292 55.1464 630.433 60.2008C633.574 65.2551 635.168 70.9858 635.047 76.7937C619.225 80.4149 602.604 83.186 585.731 77.6599L581.746 68.7701L579.397 77.6665C574.259 79.581 569.107 81.2009 563.955 77.648C563.745 71.8564 565.206 66.116 568.192 61.0006C571.179 55.8851 575.585 51.5737 580.972 48.4975Z" fill="#2F2E41"/>
<path d="M654.178 328.376L658.363 363.004C658.655 363.868 659.243 364.624 660.04 365.161C660.838 365.698 661.803 365.988 662.795 365.988H682.089C683.081 365.988 684.046 365.698 684.844 365.161C685.642 364.624 686.23 363.868 686.521 363.004L689.988 336.463C690.989 336.911 692.092 337.135 693.206 337.118C694.32 337.101 695.414 336.843 696.398 336.365C697.382 335.888 698.227 335.204 698.864 334.371C699.502 333.538 699.913 332.578 700.064 331.572C700.216 330.565 700.103 329.54 699.735 328.581C699.367 327.622 698.755 326.756 697.948 326.055C697.142 325.354 696.164 324.837 695.096 324.547C694.028 324.258 692.9 324.203 691.804 324.389C691.371 323.923 690.832 323.549 690.225 323.293C689.617 323.037 688.955 322.905 688.286 322.906H658.61C657.884 322.906 657.169 323.061 656.521 323.359C655.873 323.657 655.311 324.09 654.88 324.622C654.449 325.154 654.161 325.771 654.039 326.423C653.917 327.075 653.964 327.744 654.178 328.376ZM690.594 334.669L692.718 328.376C692.963 327.65 692.988 326.877 692.788 326.139C692.879 326.134 692.964 326.114 693.056 326.114C694.389 326.114 695.668 326.597 696.611 327.457C697.554 328.316 698.084 329.482 698.084 330.697C698.084 331.913 697.554 333.079 696.611 333.938C695.668 334.798 694.389 335.281 693.056 335.281C692.191 335.276 691.342 335.065 690.594 334.669Z" fill="#A2B742"/>
<path d="M683.272 366.011C682.054 364.896 681.119 363.55 680.534 362.07C679.948 360.589 679.726 359.009 679.883 357.442C680.039 355.874 680.571 354.357 681.44 352.997C682.31 351.638 683.495 350.468 684.914 349.571L666.11 264.43L686.876 270.508L701.927 352.861C703.422 355.133 703.951 357.827 703.412 360.431C702.874 363.035 701.307 365.368 699.007 366.989C696.708 368.61 693.836 369.406 690.936 369.226C688.036 369.046 685.309 367.902 683.272 366.011Z" fill="#FFB6B6"/>
<path d="M647.036 150.579L659.92 141.713C659.92 141.713 671.286 140.979 673.299 159.664C675.312 178.348 687.916 250.059 687.916 250.059L707.631 333.298L680.34 338.759L659.223 248.929L638.085 186.955L647.036 150.579Z" fill="#E6E6E6"/>
<path d="M535.838 228.082C539.866 228.082 543.132 225.106 543.132 221.434C543.132 217.762 539.866 214.786 535.838 214.786C531.81 214.786 528.545 217.762 528.545 221.434C528.545 225.106 531.81 228.082 535.838 228.082Z" fill="#B5D438"/>
<path d="M143.316 656.924L158.515 656.922L165.747 603.481L143.314 603.482L143.316 656.924Z" fill="#FFB6B6"/>
<path d="M139.439 652.399L143.717 652.399L160.42 646.207L169.372 652.398H169.373C174.432 652.399 179.284 654.231 182.861 657.492C186.439 660.753 188.449 665.175 188.449 669.787V670.352L139.44 670.354L139.439 652.399Z" fill="#2F2E41"/>
<path d="M202.216 648.192L217.043 651.244L237.01 600.567L215.127 596.063L202.216 648.192Z" fill="#FFB6B6"/>
<path d="M199.528 643.001L203.701 643.86L221.489 641.174L228.725 649.01L228.727 649.011C233.661 650.027 237.951 652.788 240.653 656.687C243.354 660.586 244.246 665.304 243.132 669.803L242.995 670.354L195.19 660.514L199.528 643.001Z" fill="#2F2E41"/>
<path d="M115.491 382.026L129.235 522.4C129.235 522.4 124.085 606.674 140.703 636.329H164.803L176.735 514.704L178.234 433.068L229.902 501.941L196.993 634.341L226.654 636.758L280.057 493.073L221.387 358.187L115.491 382.026Z" fill="#2F2E41"/>
<path d="M129.886 158.483C149.462 158.483 165.331 144.017 165.331 126.172C165.331 108.326 149.462 93.86 129.886 93.86C110.31 93.86 94.4399 108.326 94.4399 126.172C94.4399 144.017 110.31 158.483 129.886 158.483Z" fill="#FFB8B8"/>
<path d="M192.196 189.275L163.117 177.901L148.961 164.214L113.598 169.413L104.215 184.078L73.8414 209.824L109.427 356.5L108.35 388.535C108.35 388.535 131.126 397.882 229.902 376.362C231.086 376.104 228.607 374.974 228.607 374.974L192.196 189.275Z" fill="#3F3D56"/>
<path d="M165.145 102.537C162.775 97.8319 158.551 94.1116 153.311 92.1153C148.117 90.2056 142.312 90.2103 137.122 92.1283C132.436 89.4294 127.229 87.2898 121.746 87.0248C116.263 86.7598 110.465 88.6142 107.086 92.6962C106.332 93.7737 105.475 94.7887 104.525 95.7294C101.809 98.0224 97.681 97.6916 94.0706 97.2228C95.69 98.4879 97.3097 99.753 98.9298 101.018C96.9697 101.485 95.0093 101.952 93.0488 102.419C95.3364 103.683 97.6239 104.948 99.9111 106.213C93.2704 109.846 90.2521 117.777 91.0494 124.979C91.8036 131.798 95.4152 138.034 99.7325 143.576C101.455 140.263 101.084 136.299 101.055 132.568C101.026 128.625 101.791 124.148 105.256 121.945C107.594 120.458 110.6 120.392 113.419 120.406C127.64 120.477 141.844 121.286 155.963 122.827C157.879 122.903 159.747 123.397 161.41 124.267C164.533 126.209 165.141 130.217 165.455 133.732C167.104 127.927 167.912 121.95 167.856 115.954C167.995 111.358 167.071 106.786 165.145 102.537Z" fill="#2F2E41"/>
<path d="M176.18 480.429C206.992 480.429 231.969 457.66 231.969 429.573C231.969 401.485 206.992 378.716 176.18 378.716C145.369 378.716 120.391 401.485 120.391 429.573C120.391 457.66 145.369 480.429 176.18 480.429Z" fill="white"/>
<path d="M176.18 377.586C173.312 377.586 170.449 377.783 167.613 378.174C166.163 378.366 164.75 378.614 163.349 378.92C153.056 381.082 143.626 385.809 136.109 392.573C128.592 399.337 123.285 407.871 120.779 417.224C118.273 426.578 118.667 436.382 121.917 445.542C125.168 454.703 131.146 462.861 139.186 469.105C140.141 469.839 141.107 470.551 142.112 471.229C149.349 476.149 157.765 479.431 166.666 480.806C175.568 482.181 184.7 481.61 193.311 479.139C201.923 476.668 209.768 472.368 216.2 466.593C222.632 460.818 227.469 453.734 230.31 445.922C233.152 438.111 233.919 429.796 232.547 421.662C231.174 413.527 227.703 405.806 222.418 399.134C217.133 392.462 210.185 387.029 202.146 383.283C194.108 379.537 185.208 377.584 176.18 377.586V377.586ZM176.18 479.299C164.581 479.31 153.284 475.931 143.947 469.659C142.93 468.981 141.951 468.28 140.996 467.534C133.163 461.511 127.351 453.597 124.227 444.7C121.102 435.803 120.792 426.283 123.331 417.233C125.87 408.183 131.157 399.968 138.583 393.531C146.01 387.095 155.277 382.696 165.32 380.841C166.708 380.581 168.097 380.377 169.511 380.219C171.723 379.969 173.951 379.845 176.18 379.846C190.648 379.846 204.522 385.085 214.752 394.411C224.982 403.736 230.73 416.384 230.73 429.573C230.73 442.761 224.982 455.409 214.752 464.734C204.522 474.06 190.648 479.299 176.18 479.299Z" fill="#3F3D56"/>
<path d="M148.816 419.401H203.544C205.549 419.401 207.174 417.92 207.174 416.092V415.93C207.174 414.102 205.549 412.62 203.544 412.62H148.816C146.812 412.62 145.186 414.102 145.186 415.93V416.092C145.186 417.92 146.812 419.401 148.816 419.401Z" fill="#B5D438"/>
<path d="M148.816 432.963H203.544C205.549 432.963 207.174 431.481 207.174 429.654V429.491C207.174 427.664 205.549 426.182 203.544 426.182H148.816C146.812 426.182 145.186 427.664 145.186 429.491V429.654C145.186 431.481 146.812 432.963 148.816 432.963Z" fill="#B5D438"/>
<path d="M148.816 446.525H203.544C205.549 446.525 207.174 445.043 207.174 443.216V443.053C207.174 441.225 205.549 439.744 203.544 439.744H148.816C146.812 439.744 145.186 441.225 145.186 443.053V443.216C145.186 445.043 146.812 446.525 148.816 446.525Z" fill="#B5D438"/>
<path d="M154.043 408.583C154.795 406.842 155.119 404.973 154.993 403.106C154.866 401.239 154.292 399.42 153.311 397.777C152.33 396.134 150.966 394.707 149.314 393.597C147.663 392.487 145.765 391.72 143.753 391.351L137.023 346.298L117.508 361.849L126.891 402.247C126.435 405.369 127.251 408.535 129.184 411.145C131.117 413.755 134.033 415.628 137.38 416.409C140.727 417.19 144.272 416.824 147.343 415.382C150.414 413.94 152.798 411.52 154.043 408.583V408.583Z" fill="#FFB8B8"/>
<path d="M77.5863 209L72.2968 209.923L69.0996 213.593C69.0996 213.593 63.9271 232.087 69.8194 245.011C75.7116 257.936 118.313 387.853 118.313 387.853L148.912 388.662L125.076 283.327L77.5863 209Z" fill="#3F3D56"/>
<path d="M198.218 401.974C196.808 400.615 195.743 398.99 195.096 397.215C194.45 395.44 194.238 393.557 194.477 391.699C194.715 389.841 195.397 388.053 196.475 386.462C197.554 384.87 199.002 383.514 200.717 382.487L188.535 338.396L213.003 346.192L220.82 386.867C222.52 389.608 223.058 392.823 222.332 395.902C221.606 398.981 219.666 401.71 216.88 403.572C214.094 405.434 210.655 406.3 207.216 406.006C203.776 405.711 200.574 404.277 198.218 401.974Z" fill="#FFB8B8"/>
<path d="M187.527 190.796L192.813 189.855L197.281 192.173C197.281 192.173 209.645 207.576 209.464 221.571C209.283 235.566 222.892 370.595 222.892 370.595L194.83 381.746L173.864 275.905L187.527 190.796Z" fill="#3F3D56"/>
</g>
<defs>
<clipPath id="clip0_49_4">
<rect width="1222" height="732" fill="white"/>
</clipPath>
</defs>
</svg>
