<svg width="532" height="731" viewBox="0 0 532 731" fill="none" xmlns="http://www.w3.org/2000/svg">
<g clip-path="url(#clip0_22_271)">
<path d="M339.68 51.4476H234.189V109.145H339.68V51.4476Z" fill="#2F2E41"/>
<path d="M129.68 60.751H75.291V43.2315C75.291 36.5692 78.1561 30.1797 83.256 25.4687C88.356 20.7577 95.273 18.1111 102.485 18.1111C109.698 18.1111 116.615 20.7577 121.715 25.4687C126.815 30.1797 129.68 36.5692 129.68 43.2315V60.751ZM76.4951 59.6387H128.476V43.2315C128.476 36.8642 125.738 30.7576 120.863 26.2552C115.989 21.7528 109.379 19.2234 102.485 19.2234C95.5924 19.2234 88.9817 21.7528 84.1076 26.2552C79.2334 30.7576 76.4951 36.8642 76.4951 43.2315V59.6387Z" fill="#3F3D56"/>
<path d="M140.76 55.7878V51L53.9346 53.3939L51.1865 174.666L64.0365 191L140.76 55.7878Z" fill="#3F3D56"/>
<path d="M156.203 54L62.5117 56.2055L64.5181 191L154.935 180.919L156.203 54Z" fill="#A2B742"/>
<path d="M308.522 680.008H291.505L283.41 619.376H308.525L308.522 680.008Z" fill="#FFB6B6"/>
<path d="M312.861 695.245L257.991 695.243V694.602C257.992 689.37 260.242 684.352 264.247 680.653C268.252 676.953 273.684 674.875 279.348 674.874H279.35L312.862 674.875L312.861 695.245Z" fill="#2F2E41"/>
<path d="M246.06 680.008H229.043L220.948 619.376H246.063L246.06 680.008Z" fill="#FFB6B6"/>
<path d="M250.4 695.245L195.53 695.243V694.602C195.53 689.37 197.78 684.352 201.786 680.653C205.791 676.953 211.223 674.875 216.887 674.874H216.888L250.401 674.875L250.4 695.245Z" fill="#2F2E41"/>
<path d="M196.085 300.361C196.085 300.361 171.222 349.821 193.683 449.376C216.145 548.931 216.331 658.227 216.331 658.227L250.676 658.744L269.97 423.44L280.071 655.422H313.909L343.73 427.107C343.73 427.107 363.354 325.157 319.592 306.903L196.085 300.361Z" fill="#2F2E41"/>
<path d="M319.427 103.403L244.226 97C220.644 112.878 207.408 141.395 210.125 170.819C213.809 210.714 212.563 265.616 183 289.467C183 289.467 263.575 348.211 335.15 292.48C335.15 292.48 310.675 231.913 327.479 207.726C344.283 183.539 350.345 115.584 319.427 103.403Z" fill="#E4E4E4"/>
<path d="M91.3356 27.2357C91.105 29.2381 91.3525 31.2628 92.0606 33.1673C92.7688 35.0717 93.9204 36.8096 95.4343 38.2585C96.9482 39.7073 98.7876 40.832 100.823 41.5532C102.858 42.2743 105.04 42.5745 107.215 42.4326L206.505 128.028L224.301 102.987L121.106 26.7238C120.605 23.3651 118.789 20.2927 116 18.0887C113.211 15.8847 109.644 14.7022 105.974 14.7653C102.305 14.8284 98.7879 16.1327 96.0899 18.4311C93.3919 20.7295 91.7002 23.8622 91.3356 27.2357V27.2357Z" fill="#FFB6B6"/>
<path d="M187.964 114.805L211.519 92.4541C212.189 91.8182 213 91.3232 213.896 91.0028C214.792 90.6824 215.752 90.5441 216.711 90.5974C217.67 90.6507 218.605 90.8943 219.453 91.3116C220.301 91.7289 221.042 92.3102 221.625 93.0157L242.046 117.739C245.548 120.925 247.54 125.264 247.584 129.805C247.629 134.345 245.723 138.717 242.284 141.961C238.845 145.205 234.153 147.057 229.238 147.111C224.323 147.165 219.585 145.417 216.063 142.249L188.843 124.121C188.064 123.602 187.415 122.934 186.941 122.162C186.466 121.39 186.178 120.533 186.094 119.649C186.011 118.765 186.135 117.874 186.457 117.039C186.78 116.203 187.294 115.441 187.964 114.805V114.805Z" fill="#E4E4E4"/>
<path d="M460.217 235.679C460.327 233.668 459.958 231.659 459.136 229.794C458.315 227.929 457.06 226.253 455.462 224.884C453.863 223.515 451.959 222.486 449.883 221.87C447.808 221.255 445.611 221.067 443.449 221.32L339.163 140.953L322.901 166.869L430.524 237.718C431.225 241.046 433.224 244.02 436.141 246.078C439.058 248.135 442.691 249.133 446.351 248.881C450.011 248.63 453.444 247.147 456 244.714C458.555 242.281 460.056 239.066 460.217 235.679V235.679Z" fill="#FFB6B6"/>
<path d="M358.471 153.204L336.297 176.729C335.666 177.398 334.887 177.934 334.011 178.3C333.136 178.666 332.185 178.853 331.225 178.849C330.264 178.845 329.315 178.65 328.444 178.277C327.572 177.904 326.797 177.362 326.173 176.687L304.297 153.05C300.608 150.048 298.357 145.818 298.039 141.287C297.721 136.755 299.362 132.293 302.601 128.877C305.84 125.461 310.413 123.37 315.317 123.064C320.222 122.758 325.058 124.261 328.765 127.244L357.033 143.947C357.843 144.425 358.531 145.059 359.051 145.806C359.571 146.552 359.911 147.393 360.047 148.271C360.184 149.15 360.113 150.045 359.842 150.896C359.57 151.748 359.102 152.535 358.471 153.204V153.204Z" fill="#E4E4E4"/>
<path d="M470.812 269.661H429.614V256.391C429.614 251.344 431.785 246.504 435.648 242.936C439.511 239.368 444.75 237.363 450.213 237.363C455.677 237.363 460.916 239.368 464.779 242.936C468.642 246.504 470.813 251.344 470.813 256.391L470.812 269.661ZM430.526 268.819H469.9V256.391C469.9 251.568 467.826 246.942 464.134 243.532C460.442 240.121 455.435 238.205 450.213 238.205C444.992 238.205 439.985 240.121 436.292 243.532C432.6 246.942 430.526 251.568 430.526 256.391V268.819Z" fill="#3F3D56"/>
<path d="M491.183 267.836V262.65L386.412 265.243L383.096 396.609L398.601 414.303L491.183 267.836Z" fill="#3F3D56"/>
<path d="M509.73 266.01L396.169 268.398L398.601 414.303L508.194 403.391L509.73 266.01Z" fill="#A2B742"/>
<path d="M282.771 107.863C307.302 107.863 327.188 89.4937 327.188 66.8337C327.188 44.1736 307.302 25.8041 282.771 25.8041C258.24 25.8041 238.354 44.1736 238.354 66.8337C238.354 89.4937 258.24 107.863 282.771 107.863Z" fill="#FFB6B6"/>
<path d="M262.321 48.5475C277.686 62.457 304.426 63.7902 321.323 51.4891C326.013 66.4306 326.526 82.2263 322.815 97.4008C319.104 112.575 311.29 126.633 300.102 138.262C309.502 141.399 320.322 139.335 328.723 134.335C337.125 129.334 343.347 121.7 348.042 113.55C359.665 93.3755 362.575 68.7415 354.352 47.1872C346.129 25.6329 326.429 7.75993 302.495 1.97252C278.561 -3.81488 251.119 3.334 235.129 20.7726C218.408 39.0078 215.699 65.7273 223.026 88.6463C230.354 111.565 246.425 131.248 264.083 148.713C255.601 128.567 249.977 107.492 247.35 86.0124C246.452 78.6562 245.927 71.0735 248.176 63.9684C250.426 56.8632 255.963 50.2451 263.68 48.2487" fill="#2F2E41"/>
<path d="M530.612 697.663H1.76987C1.40174 697.663 1.04871 697.528 0.788403 697.288C0.528095 697.047 0.381836 696.721 0.381836 696.381C0.381836 696.041 0.528095 695.715 0.788403 695.475C1.04871 695.234 1.40174 695.099 1.76987 695.099H530.612C530.98 695.099 531.333 695.234 531.593 695.475C531.854 695.715 532 696.041 532 696.381C532 696.721 531.854 697.047 531.593 697.288C531.333 697.528 530.98 697.663 530.612 697.663Z" fill="#CACACA"/>
<path d="M448.604 586.358H407.405V573.088C407.405 568.041 409.576 563.202 413.439 559.633C417.302 556.065 422.541 554.06 428.004 554.06C433.468 554.06 438.707 556.065 442.57 559.633C446.433 563.202 448.604 568.041 448.604 573.088L448.604 586.358ZM408.317 585.516H447.691V573.088C447.691 568.265 445.617 563.639 441.925 560.229C438.233 556.818 433.226 554.902 428.004 554.902C422.783 554.902 417.776 556.818 414.084 560.229C410.391 563.639 408.317 568.265 408.317 573.088V585.516Z" fill="#CACACA"/>
<path d="M468.975 584.533V579.347L364.203 581.94L360.887 713.306L376.393 731L468.975 584.533Z" fill="#CACACA"/>
<path d="M487.522 582.707L373.961 585.095L376.393 731L485.985 720.088L487.522 582.707Z" fill="#E4E4E4"/>
</g>
<defs>
<clipPath id="clip0_22_271">
<rect width="532" height="731" fill="white"/>
</clipPath>
</defs>
</svg>
